<?xml version="1.0" standalone="no"?>
<!DOCTYPE svg PUBLIC "-//W3C//DTD SVG 20010904//EN"
 "http://www.w3.org/TR/2001/REC-SVG-20010904/DTD/svg10.dtd">
<svg version="1.0" xmlns="http://www.w3.org/2000/svg"
 width="1080.000000pt" height="1080.000000pt" viewBox="0 0 1080.000000 1080.000000"
 preserveAspectRatio="xMidYMid meet">
<metadata>
Created by potrace 1.14, written by Peter Selinger 2001-2017
</metadata>
<g transform="translate(0.000000,1080.000000) scale(0.100000,-0.100000)"
fill="#000000" stroke="none">
<path d="M970 5400 l0 -1650 125 0 125 0 0 556 0 556 327 334 c307 312 329
333 344 316 9 -9 278 -404 599 -877 320 -473 588 -866 594 -873 9 -9 50 -12
160 -10 l147 3 -666 979 -666 979 59 61 c32 34 325 334 651 669 l593 607 -166
0 -165 0 -903 -921 -903 -921 -3 921 -2 921 -125 0 -125 0 0 -1650z"/>
<path d="M4257 5408 c-361 -904 -657 -1647 -657 -1651 0 -4 59 -6 131 -5 l131
3 203 510 202 510 794 2 794 3 205 -515 205 -515 132 0 133 0 -15 38 c-8 20
-305 762 -659 1647 l-644 1610 -149 3 -149 2 -657 -1642z m864 1235 c28 -87
183 -488 344 -890 l293 -733 -694 0 c-382 0 -694 3 -694 6 0 3 126 324 281
713 155 388 306 776 336 861 70 195 72 200 77 200 2 0 28 -71 57 -157z"/>
<path d="M7140 5400 l0 -1650 571 0 c322 0 624 5 692 11 420 37 749 175 991
416 251 249 387 579 426 1028 26 306 -6 638 -86 880 -145 445 -481 760 -949
889 -239 66 -376 76 -1072 76 l-573 0 0 -1650z m1300 1405 c465 -54 788 -263
974 -630 212 -419 208 -1115 -9 -1545 -130 -257 -326 -438 -592 -544 -224 -89
-374 -106 -960 -106 l-453 0 0 1420 0 1420 458 0 c337 0 490 -4 582 -15z"/>
</g>
</svg>
