<?xml version="1.0" ?><!DOCTYPE svg  PUBLIC '-//W3C//DTD SVG 1.0//EN'  'http://www.w3.org/TR/2001/REC-SVG-20010904/DTD/svg10.dtd'><svg enable-background="new 0 0 24 24" id="Layer_1" version="1.0" viewBox="0 0 24 24" xml:space="preserve" xmlns="http://www.w3.org/2000/svg" xmlns:xlink="http://www.w3.org/1999/xlink"><g><path d="M12,6c2.8,0,5,1.8,5,4c0,2.8-3.2,8-5,8s-5-5.2-5-8C7,7.8,9.2,6,12,6 M12,4c-3.9,0-7,2.7-7,6c0,3.3,3.5,10,7,10s7-6.7,7-10   C19,6.7,15.9,4,12,4L12,4z"/></g><g><path d="M19,10c0,3.3-14,3.3-14,0s3.1-6,7-6S19,6.7,19,10z"/></g><line fill="none" stroke="#000000" stroke-miterlimit="10" stroke-width="2" x1="12" x2="12" y1="2" y2="6"/><line fill="none" stroke="#000000" stroke-miterlimit="10" stroke-width="2" x1="12" x2="12" y1="18" y2="22"/></svg>