<?xml version="1.0" ?><svg id="outline" viewBox="0 0 340 340" xmlns="http://www.w3.org/2000/svg"><title/><path d="M329.369,251.136c-12.553,2.021-22.987,1.8-31-.664a22.2,22.2,0,0,1-15.271-17.31c-2.124-11.493-5.951-21.366-11.375-29.345A45.183,45.183,0,0,0,237.1,184.262c-19.883-1.357-36.309,6.334-61.169,17.979-5.036,2.36-10.245,4.8-15.956,7.387-19.223,8.713-31.177,10.632-35.96,9.528-4.61-1.069-8.354-4.913-9.767-10.032a15.484,15.484,0,0,1,4.464-15.632c4.9-4.72,9.533-9.179,12.634-13.81,7.806-11.66,8-26.989.487-38.144-11.918-17.7-33.814-27.876-65.082-30.254-25.224-1.918-49.415,1.893-57.365,3.146a4,4,0,1,0,1.244,7.9c57.5-9.057,98.187-.649,114.568,23.675,5.719,8.49,5.518,20.234-.5,29.225-2.622,3.916-6.951,8.084-11.535,12.5a23.571,23.571,0,0,0-6.627,23.524c2.2,7.951,8.2,13.965,15.674,15.7,7.962,1.845,22.929-1.813,41.068-10.033,5.756-2.609,10.988-5.059,16.047-7.429,23.731-11.117,39.4-18.453,57.23-17.244a37.238,37.238,0,0,1,28.553,16.073c4.8,7.056,8.2,15.905,10.124,26.3a30.172,30.172,0,0,0,20.788,23.5A60.442,60.442,0,0,0,313.74,260.5a106.777,106.777,0,0,0,16.9-1.462,4,4,0,1,0-1.272-7.9Z"/><path d="M329.457,280.587c-.52.071-52.215,6.742-63.973-29.507a44.479,44.479,0,0,1-2-12.739c-.154-7.051-2.507-30.325-26.353-33.788a38.6,38.6,0,0,0-18.543,2.017c-7.781,2.8-21.181,9.59-42.324,20.44-2.718,1.4-5.481,2.854-8.277,4.331-9.857,5.206-20.048,10.589-30.02,14.052a4,4,0,1,0,2.625,7.556c10.545-3.661,21.01-9.188,31.131-14.534,2.768-1.463,5.5-2.907,8.193-4.288,20.859-10.7,34.052-17.392,41.381-20.03a30.639,30.639,0,0,1,14.684-1.628c16.53,2.4,19.315,17.35,19.5,26.046a52.443,52.443,0,0,0,2.391,15.034c5.772,17.792,20.312,29.475,42.049,33.785a100.475,100.475,0,0,0,19.323,1.819,89.212,89.212,0,0,0,11.311-.642,4,4,0,0,0-1.1-7.924Z"/><path d="M291.978,304.113a16.339,16.339,0,0,0-6.67-8.872,19.5,19.5,0,0,0-11.818-2.674c-5.17-10.3-14.951-12.764-21.963-12.484-2.148-15.758-7.893-26.5-17.108-31.971-9.482-5.628-19.9-3.961-25.262-2.469a14.921,14.921,0,0,0-2.868-3.191,15.663,15.663,0,0,0-10.2-3.556c-10.081.061-19.269,3.917-27.307,11.459a4,4,0,0,0,5.475,5.834c6.52-6.117,13.882-9.244,21.881-9.293a7.819,7.819,0,0,1,5.019,1.693,6.916,6.916,0,0,1,2.175,3.216,4.008,4.008,0,0,0,5.366,2.412c.119-.051,12.018-4.977,21.69.8,7.6,4.543,12.179,14.535,13.616,29.691-.037.989-.368,6.225-3.226,9.64a4,4,0,0,0,6.135,5.135,23.619,23.619,0,0,0,4.773-11.4c4.282-.224,12.147.766,15.579,10.221a4,4,0,0,0,4.756,2.509c.049-.014,5.288-1.211,8.961,1.15,2.08,1.337,3.38,3.607,3.975,6.943a4,4,0,0,0,4.427,3.267c.565-.067,12.615-1.388,16.529,11.287H271.432a4,4,0,0,0,0,8h39.394a4,4,0,0,0,3.969-4.5C312.6,309.426,300.408,304.476,291.978,304.113Z"/><path d="M74.437,168.391A20.735,20.735,0,0,0,64.419,155.17c-9.647-5.421-20.247-3.435-24.571-2.251a29.326,29.326,0,0,0-32.215,1.145,4.72,4.72,0,0,0-1.628,3.319v43.5a4.116,4.116,0,0,0,3.607,4.153,4,4,0,0,0,4.393-3.981V159.467A21.305,21.305,0,0,1,37.027,160.6a4.019,4.019,0,0,0,3.63.435c.109-.04,10.911-3.91,19.844,1.109a12.706,12.706,0,0,1,6.152,8.095A11.15,11.15,0,0,1,63.2,181.288a4,4,0,0,0-.574,5.376c.439.595,10.555,14.692-5.532,26.931a4,4,0,0,0,1.561,7.09c.128.028,11.679,2.753,14.747,17.089l-.061.01a38.23,38.23,0,0,0-23.377,16.353,4.091,4.091,0,0,0,.391,5.179,4.008,4.008,0,0,0,6.173-.6,30.457,30.457,0,0,1,18.38-13.075,15.3,15.3,0,0,1,2.331.087c.032.007.064.007.1.013a17.348,17.348,0,0,1,12.973,8.191,4,4,0,0,0,4.817,1.6c.591-.226,14.533-5.391,21.637,7.651a3.994,3.994,0,0,0,4.655,1.92c.159-.047,16.068-4.507,22.238,3.722a4,4,0,0,0,4.771,1.279c.1-.044,10.578-4.315,18.23-.416a14.4,14.4,0,0,1,6.518,7.357c-.447.05-.894.11-1.341.187-8.691,1.495-14.5,7.762-16.75,10.63-11.213,2.511-19.261,7.665-23.934,15.332-4.489,7.361-4.713,15.272-4.22,20.274H102.305a4.116,4.116,0,0,0-4.153,3.607,4,4,0,0,0,3.981,4.393h29.409a4.171,4.171,0,0,0,2.179-.563,4.009,4.009,0,0,0,1.791-4.545c-.029-.1-2.866-10.251,2.469-19,3.672-6.023,10.467-10.051,20.2-11.974a4.04,4.04,0,0,0,2.576-1.74c.048-.072,4.85-7.255,12.493-8.537a16.37,16.37,0,0,1,9.912,1.667,15.313,15.313,0,0,0-3.626,5.751,4.163,4.163,0,0,0,2.209,5.307,4,4,0,0,0,5.27-2.454,6.958,6.958,0,0,1,4.574-4.649c.672-.122,9.884-1.679,16.119,3.014,3.507,2.64,5.542,6.956,6.048,12.829a4,4,0,0,0,3.509,3.627c.516.062,12.527,1.678,12.109,16.645a4.5,4.5,0,0,0,3.258,4.533,2.6,2.6,0,0,0,.725.091,4,4,0,0,0,3.993-3.825c.687-15.689-8.885-22.589-16-24.719-1.143-6.807-4.125-12.051-8.89-15.613-7.352-5.5-16.743-5.145-20.676-4.69a31.74,31.74,0,0,0-9.837-4.84c-2.117-7.232-6.029-12.353-11.663-15.222-8.192-4.171-17.64-2.2-22.228-.794-7.8-7.493-20.188-6.179-25.894-5.05-7.514-10.871-19.418-11.353-26.88-9.576a24.8,24.8,0,0,0-13.646-8.728c-1.869-12.182-8.688-19.31-14.777-22.88,5.919-6.382,7.642-13.212,7.291-19.248,6.656-5.1,14.324-10.476,23.18-16.681l.829-.582c8.246-5.778,12.463-11.985,12.534-18.448.072-6.379-3.872-12.535-11.718-18.3q-.485-.354-1.109-.775a50.371,50.371,0,0,0-20.08-7.812c-10.875-1.772-34.211-4.051-68.327.612a4,4,0,0,0,1.082,7.926c33.085-4.519,55.525-2.344,65.958-.642a42.4,42.4,0,0,1,16.91,6.561c.311.208.591.4.832.58,3.884,2.851,8.5,7.206,8.453,11.758-.051,4.657-4.991,9.088-9.126,11.985l-.829.581c-7.667,5.372-14.447,10.127-20.512,14.658a28.029,28.029,0,0,0-1.364-2.929q.452-.573.861-1.181A19.056,19.056,0,0,0,74.437,168.391Z"/><path d="M85.905,329.2c5.465-11.344,6.289-21,2.448-28.689-3.808-7.624-11.133-10.983-15-12.278C67.849,269.67,50.6,266.671,40.478,267.831A23.96,23.96,0,0,0,28.4,262.605a27.054,27.054,0,0,0-14.4.423V249.616a4,4,0,0,0-8,0v20.119a4,4,0,0,0,6.559,3.075c5.658-4.708,13.894-2.446,13.958-2.429a4.009,4.009,0,0,0,.686.138,16.574,16.574,0,0,1,9.373,4.492,4.039,4.039,0,0,0,3.4.977c.883-.156,21.641-3.589,26.192,16.362a4,4,0,0,0,3.122,3.034c.084.017,8.485,1.854,11.906,8.7,2.45,4.905,1.956,11.417-1.464,19.379H44.013a4,4,0,1,0,0,8H82.3A4,4,0,0,0,85.905,329.2Z"/><path d="M330.005,235.48h-6.462a7.13,7.13,0,0,1-7.121-7.122V214.083c2.5,3.18,6.688,6.107,13.244,6.663.115.01.23.015.344.015a4,4,0,0,0,.334-7.985c-7.74-.658-8.972-6-9.076-6.545a4,4,0,0,0-4.113-3.38c-3.553.143-6.243-.69-8.195-2.546-3.53-3.355-3.632-9.088-3.633-9.125a4,4,0,0,0-2.556-3.731c-6.715-2.6-6.464-8.366-6.418-8.967q.007-.073.012-.147c.7-10.455,9.69-11.538,10.683-11.624a4,4,0,0,0,3.625-3.148c3.541-16.437,17.184-15.017,18.745-14.792a4,4,0,0,0,1.194-7.911c-7.411-1.135-22.1,1.4-27.084,18.356a21.121,21.121,0,0,0-2.867.951,45.22,45.22,0,0,1-17.019-7.31,4,4,0,0,0-3.391-.685c-10.4,2.635-18.144,1.884-23.007-2.231-7.174-6.071-6.291-17.948-6.282-18.055a4,4,0,0,0-3.508-4.321c-4.064-.488-5.058-3.322-5.273-4.234a14.745,14.745,0,0,1,9.718-14.048,4,4,0,0,0,2.843-3.595c.437-7.431,2.717-13.02,6.777-16.613,5.741-5.082,13.394-4.664,13.449-4.657a3.987,3.987,0,0,0,4.061-2.644c4.1-11.475,13.876-10.869,14.953-10.765a3.971,3.971,0,0,0,.451.025c11.58,0,15.222,10.4,15.364,10.823a4,4,0,0,0,3.491,2.756c9.15.722,12.8,10.169,12.964,10.6a4,4,0,0,0,7.512-2.752c-.2-.562-4.883-13.027-17.336-15.475a24.253,24.253,0,0,0-21.779-13.946,22.554,22.554,0,0,0-22.085,13.447A27.9,27.9,0,0,0,256.314,83c-5.255,4.6-8.392,11.211-9.341,19.669a22.842,22.842,0,0,0-12.8,21.012,4.086,4.086,0,0,0,.037.541,13.561,13.561,0,0,0,8.732,10.453,35.8,35.8,0,0,0,2.611,12.295c-7.917,4.316-15.087,5.664-21.335,3.993-8.725-2.337-12.957-9.966-12.989-10.025a4,4,0,0,0-6.926-.246c-4.536,7.258-12.4,6.7-13.735,6.541-5.511-1.649-9.19-4.325-10.935-7.959-1.759-3.661-1.3-7.7-.732-10.178,3.388-.292,8.547-1.447,11.574-5.565a4,4,0,0,0-6.448-4.737c-1.5,2.045-5.849,2.482-7.791,2.38-4.577-.409-7.7-1.771-9.273-4.051-2.184-3.159-1-7.489-1-7.5a4,4,0,0,0-4.5-5.086c-8.4,1.416-14.521.518-17.686-2.6a10.644,10.644,0,0,1-2.808-7.331,23.07,23.07,0,0,0,4.435-3.3,4,4,0,0,0-5.578-5.735,17,17,0,0,1-4.21,2.818c-22.075,7.839-29.661-5.287-29.956-5.819-.015-.027-.035-.05-.05-.077s-.017-.045-.03-.066a18.921,18.921,0,0,1-2.037-5.436,4,4,0,0,0-7.9,1.26,20.564,20.564,0,0,0,.832,3.29C77.469,84.5,72.428,71.471,72.217,70.9a4,4,0,0,0-3.638-2.681,4.07,4.07,0,0,0-3.815,2.423c-4.524,10.554-15.6,9.819-16.045,9.784-.119-.011-.238-.016-.357-.016a24.872,24.872,0,0,1-6.219-.7c-.071-.022-.143-.037-.215-.055-6-1.627-6.979-5.349-7.077-5.808,0-.037-.02-.069-.025-.105s0-.043-.006-.065a16.512,16.512,0,0,1,.037-4.942,4,4,0,0,0-7.916-1.157,26.547,26.547,0,0,0-.278,4.367c-6.353,2.532-9.219,1.744-10.4.965C13.915,71.358,14,67.255,14,67.243c0-.069.006-.139.006-.209,0-4.145,4.813-6.6,4.836-6.616a4,4,0,0,0,2.252-3.349c.779-12.351,9.633-13.232,10.6-13.289a4,4,0,0,0,3.481-2.323c7.939-17.225,26.939-10.683,27.73-10.4a4.009,4.009,0,0,0,3.665-.485c10.067-7.067,16.876-5.2,20.394-3.055a16.524,16.524,0,0,0-3.6,8.805,19.494,19.494,0,0,0-7.9,2.142A14.248,14.248,0,0,0,69.518,57.2a12.552,12.552,0,0,0,2.759,3.69A4,4,0,0,0,77.691,55a4.509,4.509,0,0,1-1-1.35A6.263,6.263,0,0,1,79.25,45.51c3.322-1.783,7.685-1.113,7.706-1.111a4,4,0,0,0,4.574-4.811c-1.211-5.459,3.333-8.829,3.589-9.014l.017-.014.022-.013c13.991-10.03,23.163-2.528,23.6-2.162a4,4,0,0,0,5.288-6c-4.538-4.035-16.514-8.85-30.834-.133-4.644-3.581-14.99-8.683-29.56.649-9.417-2.669-26.133-2.669-34.735,13.2C23.1,37.3,14.9,42.116,13.311,54.447c-2.744,1.9-7.258,6-7.306,12.486-.137,3.2.923,9.342,5.774,12.6,4.145,2.785,9.864,2.831,17.034.155A17.014,17.014,0,0,0,36.735,86.3l-.175,2.269a13.15,13.15,0,0,0,3.3,9.743,12.4,12.4,0,0,0,8.893,4.185,20.229,20.229,0,0,0,9.012-1.94,26.622,26.622,0,0,0,14.443,3.965,39.494,39.494,0,0,0,15.112-3.172,4,4,0,0,0-3.35-7.266c-.139.065-13.892,6.27-23.424-1.358a4.042,4.042,0,0,0-4.74-.189,12.886,12.886,0,0,1-6.79,1.964,4.469,4.469,0,0,1-3.2-1.527,5.117,5.117,0,0,1-1.282-3.79l.074-.956c1.126.112,2.309.183,3.581.188,4.9.376,14.086-1.17,20.254-8.573,4.674,5.773,14.284,12.889,32.021,9.114a26.912,26.912,0,0,0,5.589,5.057,8.566,8.566,0,0,1-2.919,4.588,8.868,8.868,0,0,1-6.71,1.934,4,4,0,0,0-1.043,7.931,16.324,16.324,0,0,0,2.139.14,16.968,16.968,0,0,0,10.654-3.792,16.485,16.485,0,0,0,5.161-7.3,30,30,0,0,0,5.244,1.118v8.122a17.624,17.624,0,0,0,13.495,17.126,20.04,20.04,0,0,0,13.311,13.214v4.585a18.846,18.846,0,0,0,5.86,13.625,18.068,18.068,0,0,0,12.52,5.024c.335,0,.672-.008,1.01-.027l.517-.033a15.607,15.607,0,0,0,6.688-2.078,14.246,14.246,0,0,0,14.191,13.282h1.815a11.679,11.679,0,0,0,10.953,7.659h5.318a11.719,11.719,0,0,0,9.459-4.844,14.433,14.433,0,0,0,3.419,1.821,14.625,14.625,0,0,0,13.633-1.738c.31-.214.608-.443.9-.678a12.66,12.66,0,0,0,20.058.963c3.049,2.671,8.047,5.108,16.233,5.743a14.257,14.257,0,0,0,13.7,10.387h2.867a14.137,14.137,0,0,0,7.16-1.944,16.884,16.884,0,0,0,2.828,2.966v27.152a4.189,4.189,0,0,0,.022.42c.429,4.06,4.024,11.39,14.36,12.759a15.146,15.146,0,0,0,14.643,11.346h6.462a4,4,0,0,0,0-8Zm-158.071-91a7.843,7.843,0,0,1-7.211,7.807l-.4.026a10.181,10.181,0,0,1-7.578-2.818,10.813,10.813,0,0,1-3.361-7.817v-18.5a4,4,0,1,0-8,0v5.282a11.791,11.791,0,0,1-6.013-8.4v-6.268a4,4,0,0,0-8,0v1.289a9.628,9.628,0,0,1-4.793-8.321V98.681a45.989,45.989,0,0,0,6.637-1.195,17.688,17.688,0,0,0,4.874,10.07c4.322,4.315,10.906,6.155,19.582,5.5a16.057,16.057,0,0,0,2.648,8.52c2.287,3.364,5.829,5.644,10.563,6.811a23.679,23.679,0,0,0,1.049,13.232Zm57.451,17.285a7.344,7.344,0,0,1-3.172,6.028,6.72,6.72,0,0,1-6.266.824,5.268,5.268,0,0,1-3-2.466,3.82,3.82,0,0,0-3.258-2.765,4.025,4.025,0,0,0-3.961,2.043l-2.322,3.91a3.674,3.674,0,0,1-3.146,1.791h-5.318a3.663,3.663,0,0,1-3.66-3.659V163a4,4,0,0,0-8,0v.471h-1.108a6.246,6.246,0,0,1-6.239-6.239v-6.1a31.954,31.954,0,0,0,8.683,3.87,3.958,3.958,0,0,0,.456.1c.5.085,10.67,1.662,18.439-5.744a29.789,29.789,0,0,0,14.5,9.3,28.828,28.828,0,0,0,7.371,1.006Zm38.047,10.554c-10.888-1.134-12.33-6-12.479-6.683a3.858,3.858,0,0,0-3.64-3.732,4.12,4.12,0,0,0-4.277,3.393l-.379,2.018a4.676,4.676,0,0,1-9.272-.862v-7.718a48.6,48.6,0,0,0,12.4-4.952,22.012,22.012,0,0,0,2.248,2.227c4.058,3.453,9.214,5.332,15.4,5.644Zm20.956,5.421a14.43,14.43,0,0,0,.15,3.581,6.187,6.187,0,0,1-4.008,1.463h-2.867a6.239,6.239,0,0,1-6.231-6.233v-15.29c1.613-.22,3.275-.515,5-.9a55.6,55.6,0,0,0,12.074,5.936A20.567,20.567,0,0,0,288.388,177.737Zm20.034,46.188c-4.769-1.159-5.726-4.308-5.9-5.259V205.139c.275.307.56.61.865.9a16.51,16.51,0,0,0,5.039,3.32Z"/><path d="M280.72,28.806a4,4,0,0,0,5.552,1.2c10.721-6.968,18.6-.25,19.437.519a4,4,0,0,0,5.861-.4c7.452-9.251,16.979-7.088,17.447-6.975a4,4,0,0,0,2-7.745,25.412,25.412,0,0,0-23.1,6.866,23.6,23.6,0,0,0-22.928-.73c-5.285-5.071-16.216-9.869-32.382-3.517A30.787,30.787,0,0,0,219.778,21c-7.372-6.152-21.361-11.734-36.533-.759-3.8-1.143-11.621-2.6-19.213,1.49-3.18-6.164-9.865-13.168-21.409-13.193a29.137,29.137,0,0,0-13.8,3.508,4.05,4.05,0,0,0-1.953,4.755,4,4,0,0,0,5.747,2.289,21.181,21.181,0,0,1,9.773-2.556c.059,0,.118,0,.178,0,9.758,0,13.741,7.121,15.088,10.53a22.56,22.56,0,0,0-4.494,11.317,4.348,4.348,0,0,0,2.652,4.432,3.344,3.344,0,0,0,1.309.255,4,4,0,0,0,3.987-3.725,14.824,14.824,0,0,1,3.775-8.491c7.5-6.677,17.056-2.642,17.442-2.474a4,4,0,0,0,4.144-.538c10.085-8.132,18.684-6.345,24.106-3.44-7.873,3.152-16.59,10.285-18.94,24.156a23.488,23.488,0,0,0-13.007,6.083c-4.087,4.015-6.141,9.525-6.107,16.383a18.609,18.609,0,0,0,4.638,12.758c3,3.333,7.174,5.434,12.437,6.272.019,9.588,4.568,23.672,22.392,27.632a4,4,0,0,0,1.736-7.809c-18.162-4.036-16.2-20.915-15.916-22.81A4,4,0,0,0,194,82.45c-4.943-.179-8.589-1.509-10.834-3.953a10.873,10.873,0,0,1-2.654-7.11c.007-.1.01-.2.009-.307-.04-4.636,1.195-8.234,3.673-10.692,4.2-4.165,10.858-4.1,10.887-4.108a4.03,4.03,0,0,0,4.091-3.65c1.6-18.238,15.683-21.6,19.644-22.188a8.767,8.767,0,0,0,2.12-.585l.06-.025a9.2,9.2,0,0,0,2.289-1.42c13.4-11.1,26.262-2.951,26.8-2.6.065.043.135.078.2.117.027.015.047.037.075.052a23.436,23.436,0,0,1,8.311,9.293,4,4,0,0,0,5.8,1.564,4.092,4.092,0,0,0,1.309-5.23,31.389,31.389,0,0,0-5.456-7.7C274.714,20.21,280.473,28.44,280.72,28.806Z"/><path d="M254.322,331.468a4,4,0,0,0,0-8H252.25a4,4,0,0,0,0,8Z"/><path d="M6,226.4a4,4,0,0,0,8,0V223.1a4,4,0,0,0-8,0Z"/></svg>