<?xml version="1.0" ?><svg id="outline" viewBox="0 0 340 340" xmlns="http://www.w3.org/2000/svg"><title/><path d="M300.189,303.929l9.085,24.229a4,4,0,0,0,5.448,2.215,4.134,4.134,0,0,0,1.974-5.207l-9.017-24.045a26.218,26.218,0,0,0-7.372-10.6L284.9,277.16a21.427,21.427,0,0,1-6.107-8.889l-6.7-18.5a18.8,18.8,0,0,0-4.315-6.814,5.67,5.67,0,0,1-1.511-5.564,34.877,34.877,0,0,0-7.126-33.5c-.21-.233-.418-.476-.619-.72a68.373,68.373,0,0,1-9.333-14.282,20.791,20.791,0,0,1-1.923-8.563,157,157,0,0,1,1.2-20.172A4.161,4.161,0,0,0,245.2,155.5a4,4,0,0,0-4.646,3.474,165.7,165.7,0,0,0-1.285,21.467,28.729,28.729,0,0,0,2.676,11.835,76.416,76.416,0,0,0,10.447,16.03c.261.316.529.629.8.933,2.63,2.919,10.357,13.289,4.411,28.835a8.156,8.156,0,0,0,.053,5.852l.031.079a8.287,8.287,0,0,0,2.5,3.436c1.556,1.265,3.739,3.278,4.382,5.054l.491,1.357-16.231,19.038-24.387-21.23a4,4,0,0,0-5.781.556,4.154,4.154,0,0,0,.7,5.626l26.1,22.724,5.581,46.661a4,4,0,0,0,3.967,3.525,3.9,3.9,0,0,0,.48-.029,4,4,0,0,0,3.5-4.446l-5.557-46.453L268.2,262.508l3.034,8.378,10.891,36.921a4,4,0,0,0,3.834,2.869,4.045,4.045,0,0,0,1.483-.285,4.122,4.122,0,0,0,2.3-5.023l-5.319-18.032,10.642,9.227A18.28,18.28,0,0,1,300.189,303.929Z"/><path d="M212.084,310.528a4,4,0,0,0-3.721,4.26l.1,1.541a4,4,0,0,0,3.987,3.73c.09,0,.182,0,.273-.009a4,4,0,0,0,3.722-4.261l-.1-1.54A3.986,3.986,0,0,0,212.084,310.528Z"/><path d="M287.159,87.485l-10.465-9.862V73.206l3.262-3.61a4.08,4.08,0,0,0,1.113-2.893,4.015,4.015,0,0,0-4.007-3.871h-8.626a4.075,4.075,0,0,0-2.892,1.114,4.014,4.014,0,0,0-.186,5.568l3.336,3.692v4.417l-9.409,8.866L245.952,75.455a4,4,0,0,0-1.238-.7l-5.755-2a28.19,28.19,0,0,1,4.71-3.673,4.188,4.188,0,0,0,1.609-1.709,4.017,4.017,0,0,0-1.406-5.109l-4.189-2.746,3.494-3.978a4.031,4.031,0,0,0,.988-2.436c.008-.133.818-13.35,10.132-21.99a15.726,15.726,0,0,1,10.746-4.151h3.651v6.317a4.1,4.1,0,0,0,3.173,4.067,4,4,0,0,0,4.827-3.917V26.967h3.651a15.726,15.726,0,0,1,10.746,4.151c9.315,8.64,10.125,21.857,10.131,21.979a4,4,0,0,0,.99,2.447l3.492,3.978-4.1,2.689a4.09,4.09,0,0,0-1.543,1.744A4.018,4.018,0,0,0,301.6,69.01a28.325,28.325,0,0,1,4.833,3.748l-5.756,2a4,4,0,0,0-1.238.7l-5.768,4.773a4.135,4.135,0,0,0-1.106,5.139,4,4,0,0,0,6.055,1.15l5.364-4.439,10.351-3.595a4,4,0,0,0,2.289-5.518A24.569,24.569,0,0,0,310.7,65.81l3.17-2.077a4.084,4.084,0,0,0,1.146-1.072,4.021,4.021,0,0,0-.265-4.957l-5.67-6.458c-.079-.69-.211-1.616-.405-2.691a47.972,47.972,0,0,0,4.673-5.027,30.61,30.61,0,0,0,5.724-11.8,56.915,56.915,0,0,0,1.458-8.422,12.937,12.937,0,0,0-19.825-12.039,87.487,87.487,0,0,0-11.932,9.228,24.075,24.075,0,0,0-8.432-1.523h-15.3a23.7,23.7,0,0,0-16.186,6.286,38.978,38.978,0,0,0-9.62,14.42c-.328-.376-.644-.753-.94-1.125a22.675,22.675,0,0,1-4.22-8.75,49.518,49.518,0,0,1-1.256-7.227,4.938,4.938,0,0,1,7.557-4.564c.987.629,2,1.315,3.019,2.041a4.134,4.134,0,0,0,5.232-.236,4,4,0,0,0-.421-6.159c-1.185-.849-2.373-1.654-3.529-2.391A12.937,12.937,0,0,0,224.854,23.3a56.944,56.944,0,0,0,1.457,8.421,30.711,30.711,0,0,0,5.426,11.408,40.8,40.8,0,0,1-18.592,7.683l-1.846.264a48.7,48.7,0,0,0-25.825,12.132l-7.349,6.662-.256.254a33.7,33.7,0,0,1-9.124,6.944c-14.956,7.8-34.2,14.251-44.336,17.4a65,65,0,0,1-7.84,1.94c-9.736,1.749-41.941,10.337-47.555,47.433a67.737,67.737,0,0,0-.706,7.333l0,.02v.09c-.065,1.624-.054,3.206,0,4.764V278.364a13.361,13.361,0,0,1-13.361,13.361H53.589a10.451,10.451,0,0,1-7.332-3.153,15.743,15.743,0,1,0-22.152,22.376c1,.989,2.041,1.973,3.11,2.924A42.881,42.881,0,0,0,63.01,324c20.926-3.546,35.965-22.15,35.965-43.375V218.984a4.1,4.1,0,0,0-3.173-4.067,4,4,0,0,0-4.827,3.916v61.8c0,17.328-12.237,32.588-29.323,35.48A34.877,34.877,0,0,1,32.535,307.9c-.96-.855-1.9-1.738-2.79-2.624a7.735,7.735,0,0,1-.848-10.062,7.824,7.824,0,0,1,9.737-2.432,7.116,7.116,0,0,1,2.012,1.5,18.488,18.488,0,0,0,13.159,5.45h1.14a21.361,21.361,0,0,0,21.361-21.361v-94.11a75.048,75.048,0,0,0,22.667,24.521,31.679,31.679,0,0,1,4.235,3.288c12.857,12.107,14.191,32.809,13.843,44.072A13.962,13.962,0,0,0,125.2,269.2c1.892.88,3.684,1.8,5.394,2.74-23.254,24.059-27.147,53.036-27.308,54.32a4,4,0,0,0,3.471,4.467,4.079,4.079,0,0,0,.5.031,4,4,0,0,0,3.963-3.5c.037-.292,3.823-28.611,26.372-51.039a85.568,85.568,0,0,1,11.97,9.733,17.023,17.023,0,0,0,11.974,4.926,17.271,17.271,0,0,0,2.307-.155c2.167-.291,4.31-.648,6.438-1.036l-18.626,35.086a4.076,4.076,0,0,0,.813,4.981,4.005,4.005,0,0,0,6.194-1.118l21.891-41.236c.4-.1.8-.2,1.191-.307a11.283,11.283,0,0,0,6.076-17.577c-6.092-8.206-15.881-8.252-20.378-7.765l-3.36-3.569a104.411,104.411,0,0,1,21.778-6.871,7.966,7.966,0,0,1,6.966,1.978l7.784,7.208a29.147,29.147,0,0,0-5.368.815,4.062,4.062,0,0,0-3.123,3.89,4,4,0,0,0,5,3.888,22.834,22.834,0,0,1,8.312-.473l1.852,30.573a4,4,0,0,0,3.988,3.758c.082,0,.164,0,.246-.007a4,4,0,0,0,3.751-4.234l-1.9-31.37a15.914,15.914,0,0,0-5.085-10.642l-4.219-3.906,12.612-14.533c5.608,5.268,12.723,7.366,18.121,8.165a14.494,14.494,0,0,0,16.413-16.655l-.037-.214a14.454,14.454,0,0,0-4.805-8.355c-8.395-7.271-13.819-16.633-16.891-23.207a29.572,29.572,0,0,1-2.707-13.41,241.516,241.516,0,0,1,2.345-28.919c12.347-5.43,20.511-9.694,20.871-9.882.085-.044.169-.092.25-.143,7.332-4.542,11.967-11.947,14.905-19.771a3.9,3.9,0,0,0,.208-.572,78.888,78.888,0,0,0,3.862-16.11A4,4,0,1,0,261.3,108c-.149,1.093-.33,2.228-.532,3.38a15.4,15.4,0,0,0-7.882-4.36,15.6,15.6,0,0,0-15.789,5.868,57.642,57.642,0,0,0-3.72,5.528,4,4,0,1,0,6.816,4.189,49.859,49.859,0,0,1,3.259-4.858,7.576,7.576,0,0,1,7.757-2.9,7.37,7.37,0,0,1,5.733,5.661,24.46,24.46,0,0,1,.5,3.142c-2.378,6.117-5.938,11.733-11.295,15.1-.915.475-6.634,3.413-15.122,7.281.645-2.558,1.5-5.6,2.609-8.829a4.132,4.132,0,0,0-1.73-4.951,4,4,0,0,0-5.773,2.169,114.08,114.08,0,0,0-4.608,17.845v.011l0,.016a248.144,248.144,0,0,0-2.743,32.021,37.6,37.6,0,0,0,3.455,17.055c3.4,7.278,9.442,17.674,18.9,25.867a6.431,6.431,0,0,1,2.163,3.7l.028.158a6.33,6.33,0,0,1-1.772,5.518,6.426,6.426,0,0,1-5.58,1.891c-4.941-.732-11.705-2.787-15.926-8.42-.681-1.017-6.37-9.464-12.1-16.4a23.531,23.531,0,0,1-5.383-13.2c-.788-10.117-2.235-24.6-4.647-36.223l-2.755-18.009c-.13-1.318-1.635-17.218,0-30.071a4,4,0,0,0-7.936-1.009c-1.408,11.079-.68,23.823-.25,29.294-25.25,12.788-57.306,9.08-57.769,9.023a4.021,4.021,0,0,0-4.455,3.341,3.947,3.947,0,0,0,.45,2.542A121.293,121.293,0,0,0,136.457,175.9l7.716,10.492a13.448,13.448,0,0,1,2.612,7.975c0,9.031-.564,26.4-4.305,41.405a16.668,16.668,0,0,0,4.121,15.5l16.461,17.48a4.029,4.029,0,0,0,3.8,1.158c.1-.021,9.749-2.086,14.538,4.363a3.219,3.219,0,0,1,.319,3.323,3.464,3.464,0,0,1-2.261,1.818,127.206,127.206,0,0,1-16.677,3.369,9.08,9.08,0,0,1-7.611-2.552,96.091,96.091,0,0,0-26.6-18.294,5.972,5.972,0,0,1-3.528-5.56c.39-12.607-1.216-35.886-16.354-50.143a39.5,39.5,0,0,0-5.3-4.13c-4.748-3.151-26.146-18.889-27.091-46.452v-4.113a59.067,59.067,0,0,1,.618-6.5c4.819-31.84,32.646-39.245,41.06-40.756a72.664,72.664,0,0,0,8.8-2.175c10.395-3.232,30.149-9.862,45.66-17.948a41.687,41.687,0,0,0,11.178-8.477l7.215-6.542A40.745,40.745,0,0,1,212.43,59l1.847-.264a48.812,48.812,0,0,0,22.266-9.208c-.105.66-.185,1.249-.238,1.721l-5.623,6.4a3.975,3.975,0,0,0,.765,6.039l3.238,2.123a24.558,24.558,0,0,0-5.918,7.154,4,4,0,0,0,2.289,5.517l10.351,3.6L255.81,94c.452.374.925.717,1.409,1.042.031.022.064.039.1.06a17.658,17.658,0,0,0,9.732,2.945h11.3a17.573,17.573,0,0,0,7.4-1.629,5.443,5.443,0,0,0,3.1-3.949c.007-.041.014-.082.02-.124A5.508,5.508,0,0,0,287.159,87.485ZM141.723,169.664c-1.225-1.569-3.408-4.44-5.582-7.681,11.305.4,32.757-.288,51.931-9.163l1.43,9.354C183.472,166.089,153.327,173.085,141.723,169.664Zm49.173.46c1.847,10.371,3.013,22.3,3.69,30.976a31.484,31.484,0,0,0,7.189,17.669c3.774,4.571,7.619,9.962,9.819,13.13l-13.4,15.447a15.98,15.98,0,0,0-13.908-3.884,111.235,111.235,0,0,0-25.984,8.567l-5.873-6.237a8.7,8.7,0,0,1-2.182-8.085c3.95-15.846,4.541-33.968,4.542-43.36a21.28,21.28,0,0,0-4.167-12.694l-2.7-3.675a90.69,90.69,0,0,0,23.711-2.8h0l1.1,8.744c.013.1.031.209.052.312a9.813,9.813,0,0,1-.512,5.676c-3.645,9.054-8.771,27.056-11.238,48.03a4.066,4.066,0,0,0,2.938,4.451,4.279,4.279,0,0,0,1.026.129,4,4,0,0,0,3.968-3.535c3.121-26.649,9.958-44.176,10.727-46.087a17.785,17.785,0,0,0,.958-10.124l-1.189-9.422C184.555,172.134,187.9,170.984,190.9,170.124Zm81.8-85.278,5.516,5.2H267.178Zm32.317-66.839a4.938,4.938,0,0,1,7.556,4.564,49.393,49.393,0,0,1-1.256,7.228,22.677,22.677,0,0,1-4.22,8.749c-.308.386-.623.759-.94,1.124a38.979,38.979,0,0,0-9.62-14.419c-.178-.165-.371-.308-.553-.467A78.119,78.119,0,0,1,305.011,18.007Z"/><path d="M263.778,51.621l-2.75-1.814a4,4,0,0,0-4.407,6.678l2.75,1.814a4,4,0,0,0,4.407-6.678Z"/><path d="M284.36,49.808l-2.749,1.814a4,4,0,1,0,4.406,6.677l2.749-1.815a4,4,0,1,0-4.406-6.676Z"/></svg>