<?xml version="1.0" ?><svg id="outline" viewBox="0 0 340 340" xmlns="http://www.w3.org/2000/svg"><title/><path d="M289.233,80.845a110.788,110.788,0,0,0-45.175-17.393,18.093,18.093,0,0,0-8.14.726c-.246.082-.488.165-.722.248a17.688,17.688,0,0,0-11.809,19.307A17.9,17.9,0,0,0,239.852,99.6c21.721,1.877,38.3,11.462,49.267,28.488,7.779,12.074,11.57,26.624,10.962,42.076-1.627,41.362-20.156,62.6-28.047,69.805A51.689,51.689,0,0,1,242.7,253.349c-10.748,1.09-20-1.467-27.5-7.6a4,4,0,1,0-5.064,6.192c9.211,7.534,20.444,10.685,33.376,9.371a59.741,59.741,0,0,0,33.927-15.428c10.722-9.8,28.96-32.62,30.644-75.4.673-17.1-3.557-33.26-12.231-46.724-12.206-18.944-31.329-30.053-55.3-32.126a9.937,9.937,0,0,1-9.22-8.917,9.756,9.756,0,0,1,6.555-10.753c.183-.066.371-.129.557-.191a10.047,10.047,0,0,1,4.52-.4c16.47,2.3,70.938,14.942,80.378,81.273,0,.036.011.073.017.11a125.157,125.157,0,0,1-1.958,42.91c-6.876,31.448-24.553,55.127-52.539,70.381-.967.481-21.145,10.279-43.771,6.241l-23.6-23.225a31.879,31.879,0,0,0-1.718-8.34c11.178-8.188,23.921-26.842,27.165-35.1.133-.34.276-.67.415-1,.159.182.3.369.471.548a4,4,0,1,0,5.842-5.465,15.181,15.181,0,0,1-2.262-3.191,102.347,102.347,0,0,0,4.643-9.908c.219.648.458,1.293.724,1.93a4,4,0,0,0,7.382-3.083c-3.546-8.494-1.39-19.426-1.288-19.931.19-.777.3-1.269.328-1.391,6.22-30.683-12.009-39.185-14.553-40.211a17.614,17.614,0,0,0-7.123-1.64A22.713,22.713,0,0,0,206.9,127.2a284.67,284.67,0,0,0-28.7,26.07c.351-8.478.51-16.511.577-23.047l.959.579a4,4,0,0,0,4.131-6.852l-12.645-7.623a4,4,0,1,0-4.13,6.851l3.747,2.259c-.007.092-.028.179-.029.271-.043,9.184-.268,22.893-1.073,36.7a275.273,275.273,0,0,0-16.857,23.445,4,4,0,1,0,6.751,4.292,267.287,267.287,0,0,1,17.053-23.617,295.452,295.452,0,0,1,35.136-33.025,14.681,14.681,0,0,1,9.421-3.229,9.6,9.6,0,0,1,3.983.886,4.155,4.155,0,0,0,.44.188c.149.054,14.854,5.645,9.692,31.114a149.073,149.073,0,0,1-7.42,22.762A3.994,3.994,0,0,0,221.068,188a28.186,28.186,0,0,0,1.459,8.037,66.7,66.7,0,0,0-3.044,6.663c-3.049,7.757-16.982,27.5-26.606,33-.06.034-.107.08-.164.117a3.729,3.729,0,0,0-.315.224,4.114,4.114,0,0,0-.321.279c-.081.08-.157.161-.23.247a3.873,3.873,0,0,0-.28.361c-.056.082-.107.166-.156.252a3.825,3.825,0,0,0-.216.429c-.036.085-.068.171-.1.258a4.065,4.065,0,0,0-.134.474c-.019.088-.033.175-.046.265a3.982,3.982,0,0,0-.041.5c0,.088,0,.175.006.263a3.8,3.8,0,0,0,.059.518c.015.085.034.167.055.251a4.013,4.013,0,0,0,.167.515c.017.043.024.086.042.128,4.836,10.988,1.186,18.282-2.729,22.465a15.15,15.15,0,0,1-9.322,4.769,12.249,12.249,0,0,1-3.065-.026,21.9,21.9,0,0,0,9.4-10.116,4,4,0,1,0-7.369-3.111c-2.745,6.5-11.753,8.737-11.912,8.776-.056.013-.1.039-.159.054-.1.028-.2.045-.3.081a18.265,18.265,0,0,1-8.208.5,1.475,1.475,0,0,1-1.238-1.112l-.03-.112a1.3,1.3,0,0,1,.181-1.091,1.382,1.382,0,0,1,.988-.6,26.893,26.893,0,0,0,12.325-4.706,20.1,20.1,0,0,0,3.719-3.782,13.515,13.515,0,0,0,.591-15.381,13.941,13.941,0,0,0-14.25-6.528c-.662.113-1.337.253-2.008.416a1.553,1.553,0,0,1-1.51-.439,1.588,1.588,0,0,1-.424-1.559,13.478,13.478,0,0,1,.415-1.34c1.677-4.537,4.341-6.979,8.142-7.469a10.044,10.044,0,0,1,7.183,2.018l10.452,7.786a4,4,0,1,0,4.779-6.416l-10.452-7.786a18.943,18.943,0,0,0-4.4-2.442,38.8,38.8,0,0,1,2.465-15.183c10.311-16.092,33.126-40.142,33.357-40.384a4,4,0,1,0-5.8-5.514c-.969,1.018-23.848,25.136-34.491,41.888a4.062,4.062,0,0,0-.271.5,45.5,45.5,0,0,0-3.3,17.552c-.183.018-.367.02-.55.043-4.767.614-11.174,3.3-14.6,12.56a20.515,20.515,0,0,0-.682,2.177,9.628,9.628,0,0,0,11.568,11.778c.47-.114.96-.217,1.462-.3a5.91,5.91,0,0,1,6.09,2.83,5.654,5.654,0,0,1-.2,6.432,12.12,12.12,0,0,1-2.193,2.221,19.7,19.7,0,0,1-8.4,3.088,9.358,9.358,0,0,0-7.912,11.718l.03.111a9.466,9.466,0,0,0,7.923,6.959,29.1,29.1,0,0,0,9.435-.194A17.824,17.824,0,0,0,177.65,276.1a21.62,21.62,0,0,0,2.4-.136,23.161,23.161,0,0,0,14.268-7.253,27.086,27.086,0,0,0,5.875-9.69l20.1,19.781c.015.016.032.031.048.047L258.293,316.2a4,4,0,0,0,5.611-5.7L234.175,281.24c.768.023,1.54.051,2.3.051a85.99,85.99,0,0,0,36.15-8.185c37.552-20.443,51.5-52.466,56.585-75.729a131.858,131.858,0,0,0,2.039-45.907C326.826,120.5,312.691,96.74,289.233,80.845Z"/><path d="M29.685,32.338A22.131,22.131,0,0,0,12.5,40.659,22.436,22.436,0,0,0,8.179,59.524a25.529,25.529,0,0,0,4.884,10.327c-.2.736-.392,1.479-.565,2.23l-.024.112c-.158.792-3.878,19.577-4.152,37.128a4,4,0,0,0,4,4.062h5.255c.114.963.281,2.092.5,3.332-9.044,33.817-3.77,67.258-3.539,68.677a4,4,0,0,0,5.365,3.1l.442-.168c1.307,11.994-.783,28.879-.808,29.071-.016.13-.026.262-.029.393-.308,11.323-5.056,23.933-7.083,28.829a28.092,28.092,0,0,0-1.818,6.494c-1.253,8.234-.081,14.812,3.484,19.552a16.372,16.372,0,0,0,7.482,5.578,28.8,28.8,0,0,0,3.486,6.546l6.9,9.684a20.586,20.586,0,0,1,3.8,11.013l.372,8.051a4,4,0,0,0,3.993,3.815c.062,0,.125,0,.187,0a4,4,0,0,0,3.811-4.18l-.372-8.052a28.582,28.582,0,0,0-5.276-15.283l-6.894-9.684a20.673,20.673,0,0,1-2.848-5.713A26.3,26.3,0,0,1,33.3,261.679c5.918-7.443,6.255-17.952,6.126-22.124a24.977,24.977,0,0,1,.234-4.183c3.233-23.309,18.529-45.515,22.508-50.967l20.387-2.832c-3.716,17.773-17.393,42.879-23.525,53.546a57.962,57.962,0,0,1-6.622,9.409c-14.043,16.041-7.036,27.533-3.371,31.73a5.409,5.409,0,0,1,1.279,3.578v1.291a12.327,12.327,0,0,0,4.435,9.481,12.161,12.161,0,0,0,9.982,2.658c15.785-2.845,19.425-14.283,19.154-20.052V262.453a7.117,7.117,0,0,1,2.609-5.572C96.773,248.565,105.787,235.5,111.541,226a105.032,105.032,0,0,1,9.37-13.078c2.92-3.48,5.679-7.162,8.236-10.846l7.822,8.261a61.457,61.457,0,0,0,6.469,5.92,4,4,0,1,0,4.965-6.273,53.443,53.443,0,0,1-5.625-5.148l-9.094-9.6a231.768,231.768,0,0,0,13.686-24.847,4,4,0,0,0-3.636-5.668h-2.407A336.774,336.774,0,0,0,147.014,120a4,4,0,0,0-7.985-.5,321.411,321.411,0,0,1-6.535,48.363,4,4,0,0,0,3.907,4.857h.9c-4.111,8.011-12.408,23.011-22.521,35.062A113.121,113.121,0,0,0,104.7,221.857c-4.439,7.329-13.361,20.816-23.231,28.806a15.08,15.08,0,0,0-5.576,11.79v10.865q0,.115.006.231c.019.319.271,6.569-6.911,10.066a23.671,23.671,0,0,0,1.947-7.015A4,4,0,0,0,63,275.578c-.673,5.23-2.621,7.164-3.97,7.884a4.324,4.324,0,0,1-.708-2.335v-1.291a13.41,13.41,0,0,0-3.254-8.842c-3.461-3.962-5.686-10.857,3.365-21.2a65.849,65.849,0,0,0,7.539-10.691c8.665-15.074,23.439-43.067,25.324-61.628.213-1.15,1.933-10.475,2.711-14.89a4,4,0,1,0-7.878-1.389c-.551,3.125-1.576,8.719-2.2,12.106l-16.216,2.253a30.165,30.165,0,0,0,1.479-3.286,4,4,0,0,0-7.509-2.76,52.829,52.829,0,0,1-4.951,8.806c-1.589,2.049-21.064,27.646-24.99,55.954a32.842,32.842,0,0,0-.307,5.53c.1,3.291-.122,11.526-4.431,16.946a34.518,34.518,0,0,0-5.536,12.2,8.7,8.7,0,0,1-.979-1.1c-2.192-2.915-2.872-7.6-1.968-13.54a20.021,20.021,0,0,1,1.3-4.638C22.006,244.4,27.112,230.8,27.5,218.2c.3-2.426,2.765-23.694-.093-36.24a4,4,0,0,0-5.317-2.853l-.268.1a185.366,185.366,0,0,1,1.135-47.039,63.678,63.678,0,0,0,8.541,13.7,4,4,0,0,0,4.966,1.008l6.917-3.651c3.768,4.206,12.124,12.237,23.7,15.882a4,4,0,0,0,3.322-.423c.6-.374,13.633-8.588,22.351-19.4l4.84,2.67a4,4,0,0,0,5.19-1.182,73.668,73.668,0,0,0,12.025-39.166l3.323.344a4,4,0,0,0,4.411-3.911,98.6,98.6,0,0,0-5.333-30.6,25.618,25.618,0,0,0,4.958-11.072,22.447,22.447,0,0,0-4.981-18.7,22.115,22.115,0,0,0-17.462-7.716,33.971,33.971,0,0,0-6.851.9q-2.439-2.046-5.144-3.952A22.586,22.586,0,0,0,68.722,23.44a20.81,20.81,0,0,0-5.987,2.716,14.415,14.415,0,0,0-5.292-1.581,16.551,16.551,0,0,0-10.811,2.806,99.141,99.141,0,0,0-8.127,6.053A35.186,35.186,0,0,0,29.685,32.338ZM18.759,45.646a14.163,14.163,0,0,1,11-5.308c.4,0,.8.005,1.191.021A75.584,75.584,0,0,0,16.7,60.209,17.244,17.244,0,0,1,16,57.818,14.468,14.468,0,0,1,18.759,45.646Zm92.357-2.781A14.474,14.474,0,0,1,114.3,54.933,17.316,17.316,0,0,1,113.435,58a80.542,80.542,0,0,0-13.179-20.047A14.15,14.15,0,0,1,111.116,42.865ZM63.361,52.241a21.445,21.445,0,0,0,10.366,5.673c.055.011.11.02.165.028l5.642.826a12.508,12.508,0,0,1,8.358,4.969c2.9,4.04,4.167,9.37,4.72,13.13a9.782,9.782,0,0,1-2.933,8.473l-1.8,1.724a17.559,17.559,0,0,0-5.4,12.63v15.328a11.722,11.722,0,0,1-3.417,8.372,28.886,28.886,0,0,1-2.931,2.5,18.831,18.831,0,0,1-21.784.367l-.21-.143a11.809,11.809,0,0,1-5.075-8.851L47.419,96.8a17.573,17.573,0,0,0-4.467-10.333l-3.3-3.642A9.742,9.742,0,0,1,37.52,73.43a43.423,43.423,0,0,1,3.749-8.562,12.776,12.776,0,0,1,11.068-6.422H53a4,4,0,0,0,1.1-.154A18.442,18.442,0,0,0,63.361,52.241ZM42.193,40.833a90.381,90.381,0,0,1,8.873-6.793,8.567,8.567,0,0,1,5.557-1.507,6.6,6.6,0,0,1,2.277.639L59.141,43.9a11.2,11.2,0,0,1-6.75,6.547h-.054A20.793,20.793,0,0,0,34.324,60.9a51.414,51.414,0,0,0-4.439,10.143,17.771,17.771,0,0,0,3.839,17.153l3.3,3.642a9.532,9.532,0,0,1,2.423,5.6l1.643,20.467a19.769,19.769,0,0,0,8.518,14.8l.25.171a27.07,27.07,0,0,0,15.186,4.665,26.513,26.513,0,0,0,15.87-5.239,37.049,37.049,0,0,0,3.741-3.19,19.772,19.772,0,0,0,5.826-14.095V99.694a9.521,9.521,0,0,1,2.927-6.849l1.8-1.725A17.8,17.8,0,0,0,100.527,75.7c-.992-6.743-3.056-12.338-6.135-16.628a20.547,20.547,0,0,0-13.7-8.222l-5.526-.809c-.57-.129-5.986-1.5-8.028-6.352L66.9,33.013a12.817,12.817,0,0,1,3.96-1.863,14.622,14.622,0,0,1,12.289,2.3c25.581,17.914,30.329,48.7,31.206,60.071l-3.271-.338a4,4,0,0,0-4.4,4.257c1.132,16.231-5.268,29.855-8.554,35.674L93.585,130.6a4,4,0,0,0-5.212,1.214c-6.1,8.738-16.676,16.368-20.644,19.058-12.191-4.555-20.055-14.967-20.132-15.071a4,4,0,0,0-5.084-1.161l-6.8,3.589a55.227,55.227,0,0,1-10.428-28.85,4,4,0,0,0-4-4h-4.84a242.889,242.889,0,0,1,3.861-31.567C23.63,59.464,33.837,48.123,41.93,41.064,42.023,40.994,42.106,40.912,42.193,40.833Z"/><path d="M51.437,102.723l.777,10.413a13.018,13.018,0,0,0,9.21,11.444,14,14,0,0,0,8.024,0,13.018,13.018,0,0,0,9.211-11.443l.777-10.414A13.845,13.845,0,0,0,67.682,87.9h0a16.3,16.3,0,0,0-4.489,0A13.845,13.845,0,0,0,51.437,102.723Zm14-6.976a8.581,8.581,0,0,1,1.15.081,5.832,5.832,0,0,1,4.872,6.3l-.777,10.414a4.975,4.975,0,0,1-3.52,4.373,6.013,6.013,0,0,1-3.45,0,4.976,4.976,0,0,1-3.519-4.373l-.778-10.414a5.834,5.834,0,0,1,4.873-6.3A8.567,8.567,0,0,1,65.436,95.747Z"/><path d="M50.58,67.356A4,4,0,0,0,52.9,72.515l2.986,1.132a4,4,0,1,0,2.837-7.479l-2.985-1.133A4,4,0,0,0,50.58,67.356Z"/><path d="M72.031,73.342a4,4,0,0,0,1.418-.261l2.985-1.132a4,4,0,1,0-2.836-7.48L70.612,65.6a4,4,0,0,0,1.419,7.741Z"/><path d="M170.872,89.843c-.168-.355-.345-.706-.518-1.058l-.076-.166c-.01-.024-.027-.043-.038-.067A82.438,82.438,0,0,0,148.7,61.381c-2.378-1.949-3.923-2.994-3.988-3.037l-.015-.008-.015-.013a95.894,95.894,0,0,0-10.7-6.107A4,4,0,1,0,130.47,59.4a87.732,87.732,0,0,1,9.8,5.59c.137.093,1.409.972,3.363,2.574A74.4,74.4,0,0,1,163.1,92.154c.125.273,1.154,2.321,2.2,4.2,3.336,5.775,10.131,15.408,19.838,18.768a4,4,0,1,0,2.618-7.559C178.941,104.514,172.745,93.535,170.872,89.843Z"/><circle cx="60.04" cy="80.639" r="4"/><circle cx="70.225" cy="80.391" r="4"/></svg>