<?xml version="1.0" ?><svg id="outline" viewBox="0 0 340 340" xmlns="http://www.w3.org/2000/svg"><title/><path d="M134.39,283.117a25.913,25.913,0,0,1-9.113,12.054c-19.056,13.613-23.593,34.319-23.778,35.193a4,4,0,0,0,3.084,4.731,4,4,0,0,0,4.744-3.077c.039-.184,4.157-18.591,20.6-30.337a33.885,33.885,0,0,0,11.948-15.741l8.211-21.771a34.811,34.811,0,0,0,.659-22.589c-2.114-6.743-4.851-16.544-5.889-24.932a19.545,19.545,0,0,1,2.787-12.935q.306-.477.647-.946a4,4,0,0,0-6.458-4.721c-.326.446-.634.9-.925,1.352a27.56,27.56,0,0,0-3.991,18.232c1.112,8.983,3.982,19.283,6.195,26.342a26.772,26.772,0,0,1-.51,17.373Z"/><path d="M308.631,268.867a35.607,35.607,0,0,0-10.329-5.914,152.534,152.534,0,0,0-53.074-9.557,25.852,25.852,0,0,1-16.36-5.6A244.323,244.323,0,0,1,208.46,229.7a33.571,33.571,0,0,1-9.319-19.324,78.21,78.21,0,0,1-.624-8.078,9.819,9.819,0,0,0,11.522-9.66,28.635,28.635,0,0,0-14.36-25.294,77.414,77.414,0,0,0,18.67-18.848,26.228,26.228,0,0,0,2.7-.73c10.163-3.388,18.25-12.753,24.035-27.834a46.5,46.5,0,0,0,1.58-4.954c4.752-5.521,11.339-15.761,17-33.967a96.04,96.04,0,0,1,5.417-13.676,24.793,24.793,0,0,0,7.78,1.287q.573,0,1.16-.028a4,4,0,0,0-.4-7.991,16.022,16.022,0,0,1-4.6-.455c.746-1.216,1.509-2.415,2.307-3.575.751-1.091,1.572-2.24,2.449-3.424L283.8,68.84a4,4,0,0,0,2.869,1.816,4.055,4.055,0,0,0,.5.031,4,4,0,0,0,2.728-1.074c18.674-17.414,10.6-40.745,9.443-43.78-.65-2.551-4.839-15.552-23.577-20.532a47.387,47.387,0,0,0-9.039-1.47c-.056,0-.111-.008-.167-.011a50.181,50.181,0,0,0-22.715,3.916A67.032,67.032,0,0,0,213.5,33.4,39.748,39.748,0,0,1,202.554,44.65L181.192,59.439c-26.035,1.721-65.447,14.7-107.8,65.752A12.258,12.258,0,0,0,71.13,136.8a12.066,12.066,0,0,0,8.424,8.032c7,1.86,16.122.559,27.154-3.869,3.925,3.717,13.268,9,32.145,3.358,3.54,3.2,11.816,7.2,29.148,1.322,2.1,1.754,5.768,3.649,11.847,3.649a47.264,47.264,0,0,0,15.728-3.174,31.282,31.282,0,0,0,8.474,2.649,61.686,61.686,0,0,1-18.468,15.457,3.875,3.875,0,0,0-.4.206,48.591,48.591,0,0,1-29.807,4.875,4,4,0,1,0-1.164,7.915c1.363.2,2.861.362,4.454.471-3.629,6.085-5.938,15.051-1.716,27.234a7.68,7.68,0,0,0,7.317,5.127h.017c.13,2.572.336,5.606.665,8.773a41.711,41.711,0,0,0,11.433,24.5c9.247,9.6,23.259,23.7,37.5,36.358a33.523,33.523,0,0,0,22.865,8.421c20.107-.248,53.956,4.984,54.774,43.172a4,4,0,0,0,4,3.914h.087a4,4,0,0,0,3.913-4.085c-1-46.773-44.309-51.244-62.879-51a25.625,25.625,0,0,1-17.441-6.4c-14.047-12.493-27.9-26.436-37.052-35.932A33.667,33.667,0,0,1,172.905,218c-.751-7.24-.833-13.914-.841-15.178.766-7.231,4.262-10.9,10.4-10.9a3.887,3.887,0,0,0,.47-.028,8.752,8.752,0,0,1,7.851,4.122,65.726,65.726,0,0,0,.417,15.36,41.611,41.611,0,0,0,11.562,23.949,252.6,252.6,0,0,0,21.106,18.721A33.909,33.909,0,0,0,245.3,261.4a143.885,143.885,0,0,1,50.2,9.053,27.618,27.618,0,0,1,8.018,4.576c26.6,22.064,19.6,53.908,19.289,55.253A4,4,0,0,0,330.6,332.1C330.965,330.567,339.122,294.158,308.631,268.867ZM293.2,33.358c1.321,6.173,2.111,17.2-5.451,26.812l-8.695-13.62A84.434,84.434,0,0,1,293.2,33.358Zm-2.536-7.986a76.648,76.648,0,0,0-6.264,4.676,39.792,39.792,0,0,0-6.336-15.556C285.824,17.647,289.25,22.472,290.667,25.372ZM106.073,132.553c-13.052,5.654-20.506,5.6-24.462,4.545a4.048,4.048,0,0,1-2.86-2.735,4.233,4.233,0,0,1,.793-4.063c41.25-49.722,79.011-61.679,103.424-62.953a3.987,3.987,0,0,0,2.769-1.325l21.37-14.8A47.693,47.693,0,0,0,220.239,37.71a58.875,58.875,0,0,1,21.326-19.974A39.47,39.47,0,0,0,240.2,43.345a27.811,27.811,0,0,0,9.1,14.716,4,4,0,1,0,5.067-6.191,19.99,19.99,0,0,1-6.444-10.6c-3.246-12.073.526-21.011,4.991-28.186a41.938,41.938,0,0,1,11.893-1.339A33.305,33.305,0,0,1,277.105,36.8a117.631,117.631,0,0,0-12.364,15.237,90.746,90.746,0,0,0-5.023,8.243c-.032.058-.075.105-.1.165-.014.027-.019.055-.032.082a102.516,102.516,0,0,0-7.559,18.109,117.357,117.357,0,0,1-8.186,20.22,41.512,41.512,0,0,0-7.644-19.809,42.689,42.689,0,0,0-4.868-5.595,34.773,34.773,0,0,0-26.867-9.925q-.648.054-1.308.134a4,4,0,0,0,.968,7.941c.337-.041.672-.075,1-.1a26.747,26.747,0,0,1,20.65,7.711,34.63,34.63,0,0,1,3.952,4.541c6.832,9.395,8.286,21.85,3.887,33.315-4.866,12.688-11.26,20.452-19,23.079a19.343,19.343,0,0,1-9.728.624c4.1-3.243,8.65-8.194,10.11-14.885a26.592,26.592,0,0,0,8.466-5.786,4,4,0,1,0-5.636-5.677c-6.513,6.465-13.4,5.884-18.244,4.082,5.6-3.3,10.992-8.724,15.389-17.324a4,4,0,0,0-7.123-3.642c-8.716,17.048-21.975,18.59-30.73,17.338,5.56-3.963,10.9-9.937,15.453-18.762a4,4,0,1,0-7.11-3.667c-11.228,21.771-27.723,22.827-37.819,20.94,5.558-3.583,11.069-8.991,15.939-17.036a4,4,0,0,0-6.844-4.142c-6.461,10.674-14.075,15.822-21.013,18.13l-.019.006a32.364,32.364,0,0,1-6.626,1.454,4,4,0,0,0-.91.089,32.071,32.071,0,0,1-12.984-1.49,4,4,0,0,0-2.871,7.467,38.2,38.2,0,0,0,9.546,1.878C117.011,125.6,109.441,130.655,106.073,132.553Zm61.642,4.693c-10.881,4.091-17.12,3.76-20.511,2.668a19.481,19.481,0,0,0,5.813-7.61,4,4,0,0,0-7.423-2.983c-1.368,3.4-5.31,5.883-6.919,6.661-13.508,4.506-20.744,2.789-24.3.809,5.158-3.472,13.32-9.809,17.346-17.382a40.817,40.817,0,0,0,4.9-1.047,49.035,49.035,0,0,0,18.039,3.569,39.774,39.774,0,0,0,11.663-1.7,45.535,45.535,0,0,0,15.26,2.9A27.394,27.394,0,0,1,167.715,137.246Zm26.6.806c-8.653,3.3-14.046,3.575-17.293,3a34.488,34.488,0,0,0,13.2-18.407,29.31,29.31,0,0,0,15.659,5.024C202.575,133.951,195.193,137.631,194.314,138.052Zm-12.02,45.864c-10.012.073-16.727,6.545-18.113,17.4-3.744-11.816.247-19.375,4.708-23.827a56.6,56.6,0,0,0,18.48-5.292c12.735,4.959,14.678,14.847,14.67,20.43a1.833,1.833,0,0,1-.853,1.541,1.749,1.749,0,0,1-1.433.225,2,2,0,0,1-1.266-1.039A16.881,16.881,0,0,0,182.294,183.916Z"/><path d="M98.629,156.679a4,4,0,0,0-7.209-3.468c-3.775,7.843-12.444,10.971-13.715,11.393a53.141,53.141,0,0,1-17.086.936,3.124,3.124,0,0,1-2.505-2.006,3.284,3.284,0,0,1,.513-3.32c2.69-3.285,5.714-6.721,8.986-10.211a4,4,0,0,0-5.836-5.472c-3.394,3.62-6.536,7.191-9.339,10.614a11.337,11.337,0,0,0-1.775,11.3,11.5,11.5,0,0,0,1.146,2.164,45.974,45.974,0,0,1-8.612,4.174,87.6,87.6,0,0,1-8.744,2.666,12.1,12.1,0,0,0-8.291,7.037,11.925,11.925,0,0,0-.856,6.407c-1.763.191-3.883.37-6.149.458a11.162,11.162,0,0,0-3.763,21.482,35.829,35.829,0,0,0,13.52,2.352,77.615,77.615,0,0,0,20.731-3.269q3.633-1.022,7.293-2.127C23.03,258.505,10.054,314.084,8.61,320.619c-.063.289-.118.585-.159.878-.155,1.088-.254,2.141-.3,3.13a10.917,10.917,0,0,0,8.457,11.287,11.984,11.984,0,0,0,2.9.363,10.979,10.979,0,0,0,10-6.413L34.953,318.5a24.557,24.557,0,0,1,5.623-7.564,178.086,178.086,0,0,0,20.1-22.418,70.99,70.99,0,0,0,7.954-13.178c12.57-26.987,30.8-52.755,46.843-72.74a93.763,93.763,0,0,0,5.022,23.935,107.642,107.642,0,0,1,3.126,11.363,31.127,31.127,0,0,1-1.633,18.427l-4.867,11.855a31.135,31.135,0,0,1-13.246,15.152c-12.689,7.263-34.385,23.079-37.132,47.407a4,4,0,0,0,3.525,4.423,3.876,3.876,0,0,0,.454.026,4,4,0,0,0,3.97-3.551c2.351-20.821,21.783-34.852,33.157-41.361a39.181,39.181,0,0,0,16.673-19.058l4.867-11.855a39.1,39.1,0,0,0,2.055-23.143,114.214,114.214,0,0,0-3.4-12.325,85.088,85.088,0,0,1-4.814-30.729c5.221-6.2,10.021-11.617,14.086-16.066a31.377,31.377,0,0,0,7.195-4.216c.038-.03.065-.066.1-.1s.085-.057.124-.092a50.325,50.325,0,0,0,10.2-13.795,4,4,0,0,0-7.17-3.549,43.051,43.051,0,0,1-8.271,11.294,23.111,23.111,0,0,1-18.612,4.321,24.545,24.545,0,0,0,7.264-12.133,4,4,0,0,0-7.756-1.96,17.674,17.674,0,0,1-9.93,11.549c-12.1,4.14-19.69,2.81-23.981.9A29.951,29.951,0,0,0,98.629,156.679Zm12.96,19.8a36.758,36.758,0,0,0,12.955,2.9c-18.622,21.2-45.985,55.708-63.162,92.586a63.048,63.048,0,0,1-7.053,11.692,191.867,191.867,0,0,1-13.156,15.488,384.934,384.934,0,0,1,40.493-81.3,4,4,0,1,0-6.672-4.413c-32.8,49.592-46.123,97.143-47.42,101.958L22.3,326.412a3.131,3.131,0,0,1-3.752,1.74,3.014,3.014,0,0,1-2.4-3.179c.032-.73.107-1.521.226-2.353.013-.092.03-.186.05-.276.595-2.691,14.918-66.114,53.072-118.571,13.142-4.411,26.455-9.551,39.785-15.4a4,4,0,1,0-3.213-7.326,450.937,450.937,0,0,1-58.588,21.166c-12.557,3.535-22.339,3.938-29.075,1.206a3.162,3.162,0,0,1,1.062-6.076,98.721,98.721,0,0,0,12.014-1.218c1.748-.227,23.062-3.086,37.788-9.8a4,4,0,0,0-3.318-7.279c-10.889,4.962-26.377,7.745-32.71,8.734a4.023,4.023,0,0,1,.279-2.154,4.159,4.159,0,0,1,2.856-2.415,95.325,95.325,0,0,0,9.475-2.884,50.138,50.138,0,0,0,13.087-6.989c.191.037.375.091.57.119a58.534,58.534,0,0,0,17.794-.65C81.251,176.334,91.766,182.781,111.589,176.477Z"/><circle cx="262.843" cy="30.372" r="4"/></svg>