<?xml version="1.0" ?><svg viewBox="0 0 100 100" xmlns="http://www.w3.org/2000/svg"><title/><g data-name="Calque 2" id="Calque_2"><path d="M74.84,15.71a20.69,20.69,0,0,0-13.49-1.58l-24.78,4.7a2,2,0,0,0-.34.13,24.69,24.69,0,0,0-22.6,24.57q0,.49,0,1a.76.76,0,0,0,0,.16v46a1.5,1.5,0,0,0,.63,1.22,1.46,1.46,0,0,0,.87.28,1.62,1.62,0,0,0,.49-.08l34.79-12a1.5,1.5,0,0,0,1-1.42v-13l18.4-4.51a.79.79,0,0,0,.23-.08A24.62,24.62,0,0,0,88.46,37.25,23.79,23.79,0,0,0,74.84,15.71ZM38.29,21.87A21.66,21.66,0,1,1,16.63,43.53,21.68,21.68,0,0,1,38.29,21.87ZM69.15,58.23a1.57,1.57,0,0,0-.23.09L54.87,61.75A24.64,24.64,0,0,0,46,20.1l16-3A17.8,17.8,0,0,1,73.5,18.39a20.85,20.85,0,0,1,12,18.86A21.62,21.62,0,0,1,69.15,58.23ZM48.42,77.61l-31.79,11V55.3a24.66,24.66,0,0,0,26.7,12.36h.07l.39-.1q.43-.09.87-.21l3.76-.92Z"/><path d="M28.62,43.53a9.67,9.67,0,1,0,9.67-9.68A9.68,9.68,0,0,0,28.62,43.53Zm16.34,0a6.67,6.67,0,1,1-6.67-6.68A6.68,6.68,0,0,1,45,43.53Z"/></g></svg>