<?xml version="1.0" ?><svg id="outline" viewBox="0 0 340 340" xmlns="http://www.w3.org/2000/svg"><title/><path d="M7.7,137.37c.231.163,23.375,16.5,48.182,36.017.8.635,19.7,15.482,48.836,30.849.91,3.085,4.345,17.005-4.876,24.981a10.525,10.525,0,0,0,6.75,18.572,10.33,10.33,0,0,0,2.663-.35c9.16-2.456,29.421-12.854,24.961-56.5,12.7-.133,44.992-2.3,51.308-20.543l4.7.129c-1.462,6.5-3.274,14.6-4.787,21.441a21.572,21.572,0,0,0-.461,6.018L181,211.731a30.112,30.112,0,0,0,2.036,21.8c-8.623-5.119-16.33-9.342-21.849-12.268-4.5-2.388-9.214-4.59-14.4-6.73a4.06,4.06,0,0,0-4.915,1.406,4,4,0,0,0,1.782,5.955c4.981,2.053,9.49,4.158,13.787,6.437,7.4,3.923,18.788,10.208,31.013,17.87.782.49,1.573.967,2.362,1.446a166.051,166.051,0,0,1,7.863,16.571c.568,2.091,4.666,16.2,13.52,22.44l11.915,8.119a9.306,9.306,0,0,0,9.255.743c3-1.4,5.336-5.482,5.407-8.788a18.954,18.954,0,0,0-4.145-11.791l-6.3-8.224a87.934,87.934,0,0,1-14.1-26.644,64.233,64.233,0,0,1-3.362-21.855,87.869,87.869,0,0,1,13.342-20.143c3.524-3.905,6.4-10.122,8.385-15.36a32.579,32.579,0,0,0,5.388,5.062,4.011,4.011,0,0,0,5.534-.734l1.608-2.01a23.037,23.037,0,0,0,8.118,5.3A47.321,47.321,0,0,0,262.4,209.2c.065,9.027.442,25.126,2.106,40.935a49.294,49.294,0,0,0,4.622,16.277c-7.192-1.125-15.106-2.731-23.668-4.812-2.072-.5-4.161-1.051-6.214-1.627a4.152,4.152,0,0,0-5.078,2.508,4,4,0,0,0,2.7,5.134c2.212.624,4.466,1.215,6.7,1.758a252.439,252.439,0,0,0,36.644,6.476c30.426,2.672,48.2,9.23,48.378,9.295a4,4,0,0,0,2.818-7.487c-.6-.225-12.044-4.465-32.423-7.605-1.561-3.678-3.239-7.314-5.019-10.833a28.8,28.8,0,0,1-3.125-13.337l.355-26.267c0-.047-.011-.091-.012-.137s.009-.084.006-.128c-.011-.236-1.231-23.882,0-41.81a46.43,46.43,0,0,0-5.683-25.27,28.563,28.563,0,0,0,7.77-16.276c.042-.41.079-.827.113-1.246a28.046,28.046,0,0,0,9.656-16.706,3.982,3.982,0,0,0-3.039-4.5l-.434-.1a17.786,17.786,0,0,0,3.4-15.127,4,4,0,1,0-7.771,1.9c1.692,6.922-5.469,11.97-5.759,12.171a4.005,4.005,0,0,0-1.349,5.075,4.143,4.143,0,0,0,2.818,2.163l3.247.764a19.671,19.671,0,0,1-6.8,8.915,4,4,0,0,0-1.842,3.178c-.044.916-.112,1.827-.2,2.707-1.076,10.611-12.736,20.274-24.463,20.274a20.749,20.749,0,0,1-6.921-1.112c-19.061-6.731-21.133-23.4-21.21-24.089a4,4,0,0,0-3.284-3.534,18.9,18.9,0,0,1-10.89-6.036,4.124,4.124,0,0,0-5.522-.627,4,4,0,0,0-.562,5.822,26.8,26.8,0,0,0,12.828,8.089c1.5,6.324,6.967,21.206,25.976,27.918a28.715,28.715,0,0,0,9.585,1.569,33.3,33.3,0,0,0,18.4-5.853,38.088,38.088,0,0,1,3.955,19.384c-1.226,17.884-.124,40.46-.012,42.635l-.353,26.145a36.843,36.843,0,0,0,3.986,17.056c.987,1.952,1.943,3.943,2.864,5.957q-4.2-.5-8.78-.906c-.6-.054-1.24-.126-1.859-.188A40.643,40.643,0,0,1,272.46,249.3c-1.233-11.71-1.742-23.6-1.946-32.541.992.695,2.032,1.364,3.135,1.993a4.078,4.078,0,0,0,5.111-.795,4,4,0,0,0-1.056-6.1c-14.524-8.217-16.982-24.885-17-25.041a4,4,0,0,0-2.762-3.29c-6.818-2.154-8.505-5.91-8.705-6.417a3.856,3.856,0,0,0-3.112-2.866,4.024,4.024,0,0,0-3.839,1.535l-2.434,3.042c-3.159-3.216-3.862-5.828-4.009-6.615a27.206,27.206,0,0,0-.263-8.84,4,4,0,1,0-7.853,1.519,19.318,19.318,0,0,1,.151,6.584c-1.191,4.428-5.037,16.186-9.607,21.248a94.679,94.679,0,0,0-14.979,22.833l0,.01a4.917,4.917,0,0,0-.4,1.71,71.726,71.726,0,0,0,3.72,25.246,95.891,95.891,0,0,0,15.373,29.068l6.262,8.172a10.8,10.8,0,0,1,2.5,7.465,1.271,1.271,0,0,1-.755,1.053,1.341,1.341,0,0,1-1.365-.107l-11.863-8.082c-5.731-4.037-9.446-14.444-10.391-18.1l-.125-.4c-3.354-8.8-10.3-21.541-15.526-30.663a21.9,21.9,0,0,1-2.026-16.968l1.108-3.834a34.508,34.508,0,0,0,4.188,4.451,4,4,0,0,0,5.769-.492,4.134,4.134,0,0,0-.608-5.623,26.929,26.929,0,0,1-3.835-4.294,12.736,12.736,0,0,1-2.317-6.218l0-.034a13.547,13.547,0,0,1,.26-4.212c3.089-13.97,7.428-33.16,7.471-33.353a3.9,3.9,0,0,0,.087-.59,45.4,45.4,0,0,0-3.083-19.394,4.073,4.073,0,0,1,.483-3.781,4.24,4.24,0,0,1,2.152-1.592,4.009,4.009,0,0,0,2.694-4.321,4.206,4.206,0,0,0-1.329-2.48,42.415,42.415,0,0,1-4.151-4.7.839.839,0,0,1-.128-.821.875.875,0,0,1,.646-.585l2.325-.566a4.114,4.114,0,0,0,2.533-1.737,4.011,4.011,0,0,0-.727-5.189,30.358,30.358,0,0,1-4.859-5.346,1.013,1.013,0,0,1-.062-1.1,1.13,1.13,0,0,1,1.036-.637h3.9a4.12,4.12,0,0,0,2.848-1.065,4.012,4.012,0,0,0,.588-5.176,29.308,29.308,0,0,1-3.378-6.7,4.4,4.4,0,0,1,.042-3.2A4.068,4.068,0,0,1,205.4,88.9a59.326,59.326,0,0,1,9.985-.873c.108.009.217.02.326.02.076,0,.151-.011.226-.015a63.563,63.563,0,0,1,8.923.668,4,4,0,0,0,4.576-3.753,4.085,4.085,0,0,0-3.527-4.179,71.7,71.7,0,0,0-9.184-.727c-11.26-6.088-33.289-15.4-60.288-13.665a79.26,79.26,0,0,0-19.919,3.648c-8.779.789-13.042-2.638-13.3-2.854a4,4,0,0,0-5.34,5.957c.621.564,5.855,5.025,16.043,5.025a37.182,37.182,0,0,0,3.771-.2c.013,0,.024-.006.037-.007.109-.013.216-.045.325-.067a3.856,3.856,0,0,0,.475-.107l.023,0a71.221,71.221,0,0,1,18.4-3.411c17.852-1.153,33.579,3.111,44.493,7.418a12.139,12.139,0,0,0-7.029,8.045,12.9,12.9,0,0,0,.479,7.824q.409,1.119.891,2.214a9.148,9.148,0,0,0-5.59,4.592,9.036,9.036,0,0,0,.62,9.393q.82,1.167,1.755,2.29a8.924,8.924,0,0,0-2.889,4.566,9.209,9.209,0,0,0,1.772,7.954q.732.939,1.467,1.808a12.144,12.144,0,0,0-2.279,3.256,11.969,11.969,0,0,0-.406,9.465,38.591,38.591,0,0,1,2.608,15.7c-.126.557-.42,1.862-.833,3.694l-5.348-.147c-.025-28.714-37.391-46.4-39.06-47.173a4,4,0,0,0-3.37,7.255c.376.176,37.5,17.781,34.218,43.233-2.29,15.305-35.863,17.579-48.618,17.162a4,4,0,0,0-4.1,4.532c5.546,41.2-11.134,50.282-18.562,52.275a2.461,2.461,0,0,1-2.531-.872,2.581,2.581,0,0,1,.424-3.572c14.1-12.193,7.711-32.219,7.032-34.2a116.981,116.981,0,0,1-4.365-23.03,9.068,9.068,0,0,1,6.27-9.295,188.6,188.6,0,0,1,21.466-5.315c1.079-.1,7.036-.7,10.892-1.289a4.109,4.109,0,0,0,3.549-4.236,4,4,0,0,0-4.61-3.7c-2.535.4-6.27.81-8.607,1.055a11.547,11.547,0,0,1-3.381-.137c-5.63-1.08-9.266-3.632-13.039-6.532a4.391,4.391,0,0,0-4.8.007c-6.865,4.41-17.931,5.863-33.918,2.844-.506-.1-.918-.173-1.224-.226a30.782,30.782,0,0,0-15.547,1.327,127.614,127.614,0,0,1-16.962,4.486c-4.032-3.078-7.906-6-11.516-8.693a117.126,117.126,0,0,0,19.012-8.181,14.75,14.75,0,0,1,7.76-1.658,4.013,4.013,0,0,0,4.213-4.1,4.1,4.1,0,0,0-3.933-3.895,22.682,22.682,0,0,0-11.815,2.6,102.783,102.783,0,0,1-23.377,9.2C18.7,135.344,12.423,130.915,12.3,130.83A4,4,0,0,0,7.7,137.37Zm59.8,22.7a22.773,22.773,0,0,1,11.5-.97c.272.046.638.115,1.085.2,6.389,1.2,25.014,4.723,37.745-2.679.987.65,1.99,1.27,3.018,1.84-3,.766-6.225,1.667-9.372,2.69a16.955,16.955,0,0,0-11.7,17.515A115.732,115.732,0,0,0,102,193.678a336.886,336.886,0,0,1-41.169-26.572q-2.383-1.877-4.741-3.709A112.3,112.3,0,0,0,67.491,160.074Z"/><path d="M131.32,274.924a117.184,117.184,0,0,1,13.565,8.367c17.061,12.036,39.573,21.662,55.454,27.618a148.689,148.689,0,0,0,30.581,7.884c37.368,5.481,58.73,14.946,59.075,15.1a4,4,0,1,0,3.3-7.288c-.9-.408-22.5-10.05-61.214-15.727a140.68,140.68,0,0,1-28.932-7.459c-15.442-5.791-37.285-15.119-53.652-26.665a125.078,125.078,0,0,0-14.49-8.931,154.96,154.96,0,0,0-22.269-9.472,127.988,127.988,0,0,1-35.824-18.469L12.382,192.038a4,4,0,0,0-4.764,6.427l64.53,47.844A135.992,135.992,0,0,0,110.2,265.94,146.913,146.913,0,0,1,131.32,274.924Z"/><path d="M289.271,106.654a4,4,0,0,0,2.94-4.833c-.066-.264-6.767-26.251-38.083-22.759-2,.133-18.057,1.8-28.978,21.182l-6.243.822a4,4,0,0,0-3.475,3.782c-.194,4.236,1.786,12.959,10.673,15.656a4,4,0,1,0,2.323-7.655,6.656,6.656,0,0,1-4.472-4.379l4.265-.561a4,4,0,0,0,3.033-2.131c9.154-17.736,22.829-18.7,23.376-18.732.1,0,.194-.012.291-.022,24.227-2.753,29.305,15.866,29.521,16.709A4,4,0,0,0,289.271,106.654Z"/><path d="M284.283,114.463c-3.751-18.17-17.221-20.946-23.946-19.866l-7.17.765c-6.8.37-19.382,5.925-19.209,24.557.014.5.479,12.35,10.878,17.2a6.2,6.2,0,0,1,2.963,3.859l.461,1.49a10.349,10.349,0,0,0,5.375,6.308,14.7,14.7,0,0,0,6.754,1.58,16.969,16.969,0,0,0,1.793-.1l.764-.081A15.263,15.263,0,0,0,270.893,147a10.445,10.445,0,0,0,4.19-7.395l.136-1.554a8.006,8.006,0,0,1,.319-1.633l.008-.018,0-.019a5.393,5.393,0,0,1,1.752-2.728c9.136-6.941,7.088-18.621,7-19.114C284.294,114.515,284.289,114.489,284.283,114.463ZM267.114,138.91c-.042.475-.17,1.008-1.216,1.845a7.3,7.3,0,0,1-3.8,1.474l-.764.081a7.13,7.13,0,0,1-4.034-.64,2.361,2.361,0,0,1-1.4-1.561l-.282-.911a32.292,32.292,0,0,1,11.548-.9Zm5.349-11.625a12.474,12.474,0,0,0-2.968,3.277c-7.2-1.251-14.315.355-18.091,1.5a12.365,12.365,0,0,0-3.184-2.183c-5.731-2.676-6.231-9.54-6.265-10.178-.108-15.165,10.526-16.274,11.7-16.349.086,0,.171-.01.257-.02l7.369-.787c.086-.009.171-.021.255-.035.479-.081,11.7-1.805,14.895,13.516C276.505,116.456,277.5,123.461,272.463,127.285Z"/><path d="M120.072,85.613a116.987,116.987,0,0,1-14.91,5.234c-.069.018-.137.026-.205.039-.029.006-.054.019-.083.024-1.009.18-24.929,4.331-44.486-1.645-14.119-4.313-24.036-16.227-25.267-30.35a29.027,29.027,0,0,1,2.756-15.523A27.914,27.914,0,0,1,55.551,29a31.693,31.693,0,0,1,19.141.485,14.746,14.746,0,0,1,9.833,12.168A13.415,13.415,0,0,1,81.4,51.8a16.332,16.332,0,0,1-6.517,4.69c-.149.06-.29.117-.393.168a3.063,3.063,0,0,0-1.712,3.112,2.917,2.917,0,0,0,2.548,2.37c.151.034.313.067.478.1a3.069,3.069,0,0,0,1.162,0c3.193-.609,11.1-2.757,15.544-9.517,3.31-5.033,4.065-11.775,2.244-20.04C94.4,31.375,88.26,10.426,59.037,14.216c-.972.123-23.349,3.176-34.084,24.736a51.042,51.042,0,0,0,15.89,63.7c11.33,8.119,25.973,12.232,43.537,12.232.384,0,.767,0,1.153-.006h.042a4,4,0,0,1,.04,8c-.413,0-.827.006-1.236.006-19.271,0-35.479-4.616-48.2-13.73C13.02,92.556,5.114,60.843,17.791,35.385c12.7-25.5,39.133-28.972,40.252-29.107,36.721-4.759,44.4,24.2,44.478,24.5.008.035.017.069.025.1,2.327,10.489,1.2,19.317-3.356,26.24C93.064,66.43,82.656,69.3,78.465,70.1a11.022,11.022,0,0,1-4.179,0c-.242-.046-.476-.095-.7-.146a10.834,10.834,0,0,1-8.729-9.073A11.053,11.053,0,0,1,70.7,49.611a11.784,11.784,0,0,1,1.183-.54,8.332,8.332,0,0,0,3.338-2.356,5.381,5.381,0,0,0,1.351-4.205,6.717,6.717,0,0,0-4.54-5.481A23.416,23.416,0,0,0,57.7,36.706,19.912,19.912,0,0,0,45.058,46.917a21.131,21.131,0,0,0-1.966,11.3c.945,10.856,8.652,20.038,19.633,23.394,16.961,5.182,38.646,1.769,40.595,1.444.872-.225,1.825-.5,2.851-.822a11.658,11.658,0,0,1-1.445-1.284,4,4,0,0,1,5.866-5.441c.181.181,2.713,2.582,7.807,2.407,0,0,3.664-.514,4.643,2.7S120.072,85.613,120.072,85.613Z"/><path d="M92.459,129.968a4,4,0,0,0,4,4H102.4a4,4,0,0,0,4-4,3.957,3.957,0,0,0-.415-1.743c-.025-.095-.035-.191-.068-.285-.364-1.047-.738-2.029-1.1-2.979-1.149-3.016-2.057-5.4-2.064-8.576A35.144,35.144,0,0,1,104.7,104.7a4,4,0,0,0-7.652-2.335A43.09,43.09,0,0,0,94.754,116.4a26.925,26.925,0,0,0,1.9,9.565h-.2A4,4,0,0,0,92.459,129.968Z"/><path d="M99.97,145.851h8.284a4,4,0,1,0,0-8H99.97a4,4,0,0,0,0,8Z"/><circle cx="252.599" cy="115.869" r="4"/><circle cx="266.399" cy="114.487" r="4"/><circle cx="260.309" cy="123.458" r="4"/></svg>