<?xml version="1.0" ?><svg id="outline" viewBox="0 0 340 340" xmlns="http://www.w3.org/2000/svg"><title/><path d="M284.813,251.6a3.94,3.94,0,0,0-2.883-1.368l-39.141-1.016a3.941,3.941,0,0,0-.2,7.879l34.8.9-4.8,38.984h0L271,309.847a3.941,3.941,0,0,0,3.431,4.393,3.987,3.987,0,0,0,.486.03,3.944,3.944,0,0,0,3.907-3.461l1.426-11.59c6.478-6.84,14.9-12.981,25.615-18.661l2.048,17.749A143.278,143.278,0,0,0,272.15,328.4a3.941,3.941,0,0,0,6.034,5.072,135.641,135.641,0,0,1,35.78-29.521,3.94,3.94,0,0,0,2.083-3.941l-3-25.976a3.942,3.942,0,0,0-5.638-3.093,125.238,125.238,0,0,0-25.658,16.1l3.985-32.382A3.937,3.937,0,0,0,284.813,251.6Z"/><path d="M252.988,20.62a3.467,3.467,0,0,0,1.924.612c3.369.113,6.7.354,9.9.718,27.39,3.116,49.824,22.861,55.826,49.131a102.16,102.16,0,0,1,2.426,19.742,122.586,122.586,0,0,1-6.079,36.165c-8.484,26.385-24.13,46.515-46.557,59.861-.439.271-43.977,26.785-90.214,26.783-.419,0-.843,0-1.262-.007a101.159,101.159,0,0,0-18.133,1.55c-4.095.715-8.318,1.286-12.554,1.7a2.4,2.4,0,0,1-2.143-.9,2.541,2.541,0,0,1-.449-2.392,19.62,19.62,0,0,1,2.106-4.634l4.95-.962a4.055,4.055,0,0,0,3.339-4.27,3.943,3.943,0,0,0-4.676-3.5l-6.673,1.3a4.692,4.692,0,0,0-2.534,1.7,26.213,26.213,0,0,0-4.027,7.994,10.423,10.423,0,0,0-.071,6.04,62.583,62.583,0,0,1-22.474,2.8,53.335,53.335,0,0,1,3.213-5.252,4.136,4.136,0,0,0,.778-2.825,3.949,3.949,0,0,0-3.647-3.492l-13.05-.906a73.185,73.185,0,0,1,16.916-13.857c4.493-.413,9-1.044,13.471-1.848a11.546,11.546,0,0,0-.274,7.313,3.944,3.944,0,0,0,3.782,2.841,4.214,4.214,0,0,0,2.928-1.236,3.807,3.807,0,0,0,.849-3.84,3.756,3.756,0,0,1,.364-2.913c.783-1.364,1.726-2.827,2.8-4.357,36.322-8.645,68.166-26.617,70.873-28.169a88.086,88.086,0,0,0,11.3-6.622,4,4,0,0,0,1.489-4.821,3.946,3.946,0,0,0-5.9-1.712,80.288,80.288,0,0,1-10.487,6.141c-.077.037-.152.078-.226.12-.533.307-53.88,30.741-100.23,31.748a2.638,2.638,0,0,1-2.446-1.431,2.825,2.825,0,0,1,.144-2.961c2.23-3.28,5.207-7.406,8.906-12.041.2.294.4.585.62.863a11.052,11.052,0,0,0,8.654,4.128c.148,0,.3,0,.445-.008,12-.461,29.395-3.925,44.183-17.789a4.036,4.036,0,0,0,.78-5.054,3.944,3.944,0,0,0-6.061-.8c-13.038,12.287-28.516,15.355-39.2,15.766a3.265,3.265,0,0,1-2.671-1.2,3.145,3.145,0,0,1-.616-2.805l.152-.6a211.641,211.641,0,0,1,16.121-16.5,87.318,87.318,0,0,0,10.306.594,78.466,78.466,0,0,0,20.183-2.5,62.03,62.03,0,0,0,16.366,2.208c10.066,0,22.672-2.577,32.907-12.859a4.029,4.029,0,0,0,.583-5.072,3.945,3.945,0,0,0-6.081-.578c-9.162,9.268-21.088,10.9-29.982,10.488a41.261,41.261,0,0,0,9.353-7.772,4.028,4.028,0,0,0,.291-5.1,3.946,3.946,0,0,0-6.1-.226c-10.567,11.985-28.484,13.683-39.346,13.471,16.928-13.871,38.633-26.968,65.137-33.96.1-.03,10.645-2.978,20.2-2.168a8.47,8.47,0,0,1,7.689,7.434,37.063,37.063,0,0,1-5.5,24.207,4.09,4.09,0,0,0,.909,5.474,3.941,3.941,0,0,0,5.637-1.078,45.919,45.919,0,0,0,3.844-7.482,31.656,31.656,0,0,0,5.158,5.215,24.4,24.4,0,0,0,15.348,5.355,25.643,25.643,0,0,0,4.952-.485c36.686-7.221,37.972-46.122,38.014-48.872a74.815,74.815,0,0,0-.476-13.084c-3.547-27.608-28.379-47.979-56.54-46.392l-9.048.512a23.363,23.363,0,0,0-2.932-5.222l-.257-.338a28.36,28.36,0,0,0-24.1-10.832c-37.017,1.961-64.288,13.285-81.056,33.656-21.734,26.406-17.55,58.054-17.361,59.388a3.941,3.941,0,0,0,7.188,1.624,112.012,112.012,0,0,1,11.726-14.856c33.847-12.784,93.543-8.189,94.146-8.141a4.1,4.1,0,0,0,.806-.018c8.113-1.02,11.925-7.383,13.179-11.738,15.2-.6,26.874-5.674,33.809-14.759a4.018,4.018,0,0,0-.106-5.1,3.947,3.947,0,0,0-6.1.238c-5.423,7.169-14.557,11.1-27.155,11.723l.057-17.261a4.043,4.043,0,0,0-.072-.735v-8.6c0-.409-.029-.817-.05-1.225l7.769-.44c24.054-1.354,45.253,16,48.276,39.527a67.05,67.05,0,0,1,.418,11.762c0,.068,0,.143,0,.211,0,1.429-.268,35.067-31.655,41.245a16.8,16.8,0,0,1-13.835-3.276c-3.871-3.117-6.265-6.71-7.155-10.678a45.96,45.96,0,0,0,0-10.423,16.375,16.375,0,0,0-14.856-14.384c-10.977-.926-22.526,2.3-22.943,2.42-31.509,8.313-56.5,24.853-75.011,41.435a3.929,3.929,0,0,0-.944.844,219.752,219.752,0,0,0-17.87,18.223,3.932,3.932,0,0,0-.647.742,211.978,211.978,0,0,0-14.7,19,11.052,11.052,0,0,0-1.24,10.39,10.607,10.607,0,0,0,5.756,5.785c-10.363,8.235-14.266,15.33-14.468,15.707a3.95,3.95,0,0,0,.8,4.769,4.094,4.094,0,0,0,2.528,1.038l13.591.943a41.774,41.774,0,0,0-2.859,6.244,3.834,3.834,0,0,0,1.26,4.268C96.705,239.5,81.74,261.088,75.409,284.87c-3.589,13.485-8,24.637-13.112,33.146a14.506,14.506,0,0,1-19.61,5.206,10.267,10.267,0,0,1-1.353-.914,3.734,3.734,0,0,0-4.8-.667c-5.332,3.087-12.852,4.4-17.958,4.951C34.489,280.831,68.8,242.849,88.429,223.8a4.083,4.083,0,0,0,.383-5.558,3.942,3.942,0,0,0-5.72-.246C62.184,238.262,24.8,279.708,9.26,329.67a4.043,4.043,0,0,0-.092,2.233,3.954,3.954,0,0,0,3.826,2.971h.053c.635-.009,14.64-.257,25.093-5.19.184.114.378.232.583.351a22.419,22.419,0,0,0,30.331-7.961c5.492-9.143,10.193-20.978,13.972-35.176,6.736-25.3,24.59-48.708,33.2-58.938,1.042.048,2.074.081,3.088.081a71.629,71.629,0,0,0,22.927-3.863,80.65,80.65,0,0,1,24.43,21.355c-3.79,4.879-10.417,16.354-6.912,33.88a8.414,8.414,0,0,0,4.979,6.061l-13.5,44.105a4.084,4.084,0,0,0,2.25,5.016,3.938,3.938,0,0,0,5.225-2.509l14.624-47.78a8.408,8.408,0,0,0,3-4.886c.869-4.152,4.276-17.7,11.7-17.7l29.481-.648a7.217,7.217,0,0,1,4.54,1.377,2.79,2.79,0,0,1,.971,1.055,3.941,3.941,0,0,0,7.369.485c.222-.491,5.323-12.128-2.631-20.49a16.353,16.353,0,0,0-11.409-4.955l-26.9-.917a37.705,37.705,0,0,1-9.577-9.4,4.1,4.1,0,0,0-5.424-1.209,3.942,3.942,0,0,0-1.1,5.634c6.169,8.6,12.81,12.2,13.09,12.354a3.939,3.939,0,0,0,1.721.461l27.92.952a8.13,8.13,0,0,1,8.221,8.226,15.575,15.575,0,0,0-6.965-1.457l-29.395.647c-9.226,0-16.09,8.511-19.326,23.963a.6.6,0,0,1-.265.387.565.565,0,0,1-.445.073.551.551,0,0,1-.427-.4c-3.778-18.887,6.461-28.8,6.881-29.193a3.94,3.94,0,0,0,.576-5.142,87.185,87.185,0,0,0-18.885-19.645c2.056-.283,4.1-.6,6.107-.948a91.929,91.929,0,0,1,16.7-1.433c48.966.547,93.81-26.786,95.642-27.916,30.09-17.906,43.835-44.941,50.066-64.468,6.728-21.081,6.385-37.8,6.367-38.51a110.1,110.1,0,0,0-2.622-21.287c-6.689-29.282-31.5-51.334-61.856-55.106a12.22,12.22,0,0,0,1.2-2.51,4.071,4.071,0,0,0-1.874-5,3.946,3.946,0,0,0-5.553,2.357c-.869,2.825-4.5,3.912-5.856,4.223a3.505,3.505,0,0,0-1.739.932,4.285,4.285,0,0,0-1.131,3.319A3.761,3.761,0,0,0,252.988,20.62Zm-127.7,76.987c.652-10.784,3.825-27.569,15.887-42.174,15.312-18.542,40.653-28.875,75.318-30.711.391-.021.779-.032,1.167-.032a20.39,20.39,0,0,1,16.264,7.79l.006.009.2.262a15.951,15.951,0,0,1,3.129,9.513v9.142a2.839,2.839,0,0,1-3.042,2.841,147.313,147.313,0,0,0-52.336,5.737C158.857,67.015,139.869,79.647,125.289,97.607ZM237.258,74.066c-.238,1.084-1.532,5.744-6.356,6.563-5.194-.391-47.356-3.251-80.921,4,30.67-23.084,66.828-23.764,83.659-22.524a10.656,10.656,0,0,0,3.658-.379Z"/><path d="M242.327,20.154c3.562-1.241,7.739-3.939,8.3-10.295a4.136,4.136,0,0,0-2.984-4.641,4.087,4.087,0,0,0-4.795,3.461,5.547,5.547,0,0,1-3.241,4.366,3.841,3.841,0,0,0-2.244,4.275l.014.067A3.781,3.781,0,0,0,242.327,20.154Z"/><path d="M196.513,275.707a3.938,3.938,0,0,0-4.71,2.98L180.25,330.069a3.941,3.941,0,1,0,7.69,1.729l11.553-51.382A3.94,3.94,0,0,0,196.513,275.707Z"/><path d="M210.4,296.4a4,4,0,0,0,.857.094,3.943,3.943,0,0,0,3.844-3.09l.294-1.329a3.941,3.941,0,0,0-7.7-1.705l-.294,1.329A3.942,3.942,0,0,0,210.4,296.4Z"/><path d="M203.7,308.443l-4.8,21.637a3.941,3.941,0,1,0,7.7,1.706l4.795-21.637a3.941,3.941,0,1,0-7.695-1.706Z"/><path d="M248.746,302.625a3.938,3.938,0,0,0-4.393,3.431l-3,24.4a3.941,3.941,0,0,0,3.431,4.393,3.983,3.983,0,0,0,.485.03,3.942,3.942,0,0,0,3.907-3.461l3-24.4A3.941,3.941,0,0,0,248.746,302.625Z"/><path d="M254.86,285.206l.637-5.173a3.942,3.942,0,0,0-7.824-.963l-.636,5.173a3.941,3.941,0,0,0,3.43,4.393,3.987,3.987,0,0,0,.486.03A3.943,3.943,0,0,0,254.86,285.206Z"/><circle cx="256.124" cy="53.711" r="4"/></svg>