<?xml version="1.0" ?><svg id="outline" viewBox="0 0 340 340" xmlns="http://www.w3.org/2000/svg"><title/><path d="M71.866,53.549c-1.123,13.2-20.8,31.9-28.339,38.032-28.863,24.245-29.641,48.479-29.653,50.527-1.149,33.381,18.017,47.532,34.3,53.526a4,4,0,1,0,2.762-7.507c-20.1-7.4-29.878-22.808-29.069-45.806,0-.043,0-.108,0-.152,0-.22.359-22.253,26.748-44.421,1.206-.979,29.529-24.2,31.211-43.475.159-1.52,2.085-22.869-14.149-27.534a18.48,18.48,0,0,0-12.827.87C49.09,29.342,42.788,33.886,42.9,44.835a3.992,3.992,0,0,0,.166,1.1l.057.2a3.126,3.126,0,0,1-1.35,3.579,2.752,2.752,0,0,1-3.414-.128,9.15,9.15,0,0,1-.943-.908,9.664,9.664,0,0,1-2.256-5.037c-.7-4.563-.026-17.96,11.428-25.047a26.275,26.275,0,0,1,28.163.572A37.479,37.479,0,0,1,90.326,39.179a40.057,40.057,0,0,1-.352,25.036c-3.524,10.728-11.655,26.4-30.382,40.191-1.561,1.027-14.947,10.24-17.907,26.094a24.433,24.433,0,0,0,4.544,19.211,23.28,23.28,0,0,0,16.66,9.264c.528.047,1.071.069,1.613.093a57.138,57.138,0,0,0-6.625,25.453,47.915,47.915,0,0,0,9,29.408c2.533,12.482,7.66,35.4,14.532,54.208a9.909,9.909,0,0,1-2.128,10.284L63.361,295.189a10.657,10.657,0,0,0-2.8,9.213c.017.1.049.2.069.3-37.355,8.26-45.513,21.83-46.346,23.414a4.015,4.015,0,0,0,3.542,5.908,3.934,3.934,0,0,0,3.5-2.11c.074-.128,7.782-12.7,44.382-20.11.168.1.329.207.5.3A58.219,58.219,0,0,1,82.2,323.729c-5.544.781-10.017,1.556-13.525,2.346a4,4,0,0,0,.876,7.9,4.058,4.058,0,0,0,.883-.1c4.139-.933,10.019-1.888,17.465-2.844a10.516,10.516,0,0,0,16.1-1.827c14.294-1.455,29.885-2.691,41.422-3.606,3.67-.291,7.009-.555,9.884-.793a101.484,101.484,0,0,0,36.33-9.988,11.4,11.4,0,0,0,1.7,1.121,11.224,11.224,0,0,0,5.236,1.311,11.094,11.094,0,0,0,6-1.775c.593-.379,1.184-.785,1.757-1.207a18.084,18.084,0,0,0,6.923-10.552c11.047-5.413,21.812-11.125,32.02-17a4,4,0,1,0-3.992-6.932c-9.03,5.2-18.5,10.27-28.23,15.114-.081-.3-.156-.591-.252-.885a53.135,53.135,0,0,0-6.925-13.6l24.262-10.777c.037-.016.067-.041.1-.058l11.894-1.172a7.689,7.689,0,0,1,8.44,7.65v1.8a8.507,8.507,0,0,0,16.84,1.707l1.514-7.4a20.044,20.044,0,0,0,.33-2.256c3.5-3.534,7.368-7.731,11.514-12.507a107.15,107.15,0,0,0,23.294-45.827c3.062-13.164,6.224-25.394,8.336-33.336a162.88,162.88,0,0,0,4.809-26.866,319.687,319.687,0,0,0,.682-48.254,4,4,0,1,0-7.985.476,311.925,311.925,0,0,1-.662,47.043,155.149,155.149,0,0,1-4.575,25.544c-2.128,8-5.311,20.315-8.4,33.581a99.136,99.136,0,0,1-21.543,42.4q-3.733,4.3-7.119,7.919a19.961,19.961,0,0,0-2.783-4.509l-2.661-3.248a19.881,19.881,0,0,0-14.64-7.27c-5.278-.195-10.131-.3-14.422-.309a8.744,8.744,0,0,1-8.125-5.506l-.636-1.576c-2.473-6.137-6.992-17.35-11.738-30.126a10.013,10.013,0,0,0,.506-1.628,32.269,32.269,0,0,0,.634-5.285,15.183,15.183,0,0,0,3.941.883c.112.009.222.014.333.014a4,4,0,0,0,.323-7.986,7.262,7.262,0,0,1-5.108-2.721,164.372,164.372,0,0,1-18.448-29.845,4,4,0,0,0-7.59,2.272c1.6,10.457-2.162,17.368-5.249,21.109l-1.175-2.528a4,4,0,0,0-6.934-.567A25.542,25.542,0,0,1,155.621,192.4c-3.364-1.3-16.857-6.666-27.072-13.144a4,4,0,0,0-4.284,6.756c11.356,7.2,25.946,12.893,28.857,14l.032.022c.048.037.1.062.15.1q.108.074.222.141a3.974,3.974,0,0,0,.488.245c.041.017.076.043.118.059a60.226,60.226,0,0,1,15.913,9.572c1.958,1.6,4.155,4.115,3.5,7-3.185,13.956-9.548,40.695-16.385,62.966a4,4,0,0,0,4.719,5.072,166.906,166.906,0,0,0,22.4-7.006,10.518,10.518,0,0,1,12.073,2.905,4.067,4.067,0,0,0,.388.476A48.212,48.212,0,0,1,205.2,296.51a10.111,10.111,0,0,1-3.613,11.32c-.417.307-.857.612-1.324.91a3.084,3.084,0,0,1-3.2.122,3.568,3.568,0,0,1-1.917-3.079,28.171,28.171,0,0,0-2.553-11.132,12.375,12.375,0,0,0-15.854-6.1l-26,10.5a4.31,4.31,0,0,1-5.924-3.968l.371-51.11a4,4,0,0,0-1.208-2.894l-4.383-4.272a15.924,15.924,0,0,0,10.884-5.754,17.009,17.009,0,0,0,3.459-7,4,4,0,0,0-7.787-1.834,8.845,8.845,0,0,1-1.807,3.7c-3.68,4.4-9.459,2.686-9.673,2.621a4,4,0,0,0-5.228,3.5,13.276,13.276,0,0,1-1.693,5.4,69.935,69.935,0,0,0-15.277-12.075,4,4,0,0,0-5.972,3.669,8.858,8.858,0,0,1-.411,3,28.479,28.479,0,0,0-6.825-4.916,3.959,3.959,0,0,0-.641-.241c-5.722-1.6-14.456-7.117-15.524-7.8C71.434,210.3,65.64,198.719,65.876,184.656c.225-13.378,6.347-26.643,16.8-36.393,35.114-32.762,94.779-32.477,100.893-32.356A64.932,64.932,0,0,1,193.157,120a4,4,0,1,0,3.7-7.093,74.246,74.246,0,0,0-9.994-4.329c-7.536-12.285-9.774-23.382-6.618-32.994,5.132-15.631,23-22.692,23.195-22.767A56.525,56.525,0,0,0,224.731,38.8a20.916,20.916,0,0,1-.632,5.356,4,4,0,0,0,3.836,5.133h3.641a7.541,7.541,0,0,1-2.216,2.716,23.947,23.947,0,0,0-20.509,16.964,18.27,18.27,0,0,1-5.091,8.02l-7.212,6.657a11.778,11.778,0,0,0-3.785,8.864,11.18,11.18,0,0,0,3.862,8.287,12.245,12.245,0,0,0,9.313,2.717c2.936,3.529,9.8,10.4,19.8,12.047a22.779,22.779,0,0,1-9.1,13.449c-.689-.924-1.419-1.834-2.194-2.72a4,4,0,0,0-6.019,5.269,35.165,35.165,0,0,1,3.608,4.9c.037.062.082.116.123.176.015.023.024.05.04.073a131.253,131.253,0,0,1,16.756,31.641c.592,1.679,1.257,3.3,1.9,4.877l.642,1.579a6.235,6.235,0,0,1,.445,2.365l-5.27-1.012a4,4,0,0,0-1.509,7.856l8.972,1.724a4.056,4.056,0,0,0,.756.072,4,4,0,0,0,3.527-2.116,14.834,14.834,0,0,0,1.12-9.923c14.227-13.622,29.6-33.7,37.7-44.752a27.729,27.729,0,0,0,5.3-14.313l1.307-17.279a15.5,15.5,0,0,1,6.9-11.706c4.259-2.8,9.292-6.184,14.957-10.066A6.617,6.617,0,0,1,314.91,77.4l3,4.4a1.559,1.559,0,0,1,.227,1.242,1.559,1.559,0,0,1-2.548.806l-1.568-1.383a4,4,0,0,0-5.358.059L296.789,93.466a22.483,22.483,0,0,0-7.223,16.484v11.926A17.344,17.344,0,0,1,288.3,128.4c-11.913,29.51-35.185,58.707-42.034,66.953a13.369,13.369,0,0,0-2.959,10.319l.177,1.3c-3.036.726-4.793,1.044-4.816,1.048a4,4,0,0,0-3.3,3.938V217.3A49.073,49.073,0,0,1,224.5,206.258a4,4,0,1,0-6.473,4.7A53.676,53.676,0,0,0,237.6,227.964a4,4,0,0,0,5.771-3.587v-9.166c1.443-.324,3.325-.772,5.578-1.365a4,4,0,0,0,2.945-4.408l-.66-4.847a5.346,5.346,0,0,1,1.186-4.128c7.352-8.851,23.511-29.406,35.738-52.817-.368,4.435-.706,6.984-.713,7.036s-.016.131-.021.2c-2.633,30.875-19.927,60.728-33.972,80.334a4,4,0,1,0,6.5,4.658c14.614-20.4,32.617-51.566,35.431-84.217a255.107,255.107,0,0,0,1.7-28.551c0-.078-.017-.151-.021-.228a25.4,25.4,0,0,0,.5-5V109.95a14.459,14.459,0,0,1,4.646-10.6l9.31-8.583a9.564,9.564,0,0,0,14.394-5.859,9.571,9.571,0,0,0-1.4-7.617l-3-4.4A14.5,14.5,0,0,0,313.145,67c-5-28.872-2.7-56.387-2.671-56.67a4,4,0,0,0-7.97-.695,254.588,254.588,0,0,0,2.559,57.537,14.627,14.627,0,0,0-3.882,1.894q-4.4,3.009-8.248,5.6c-1.084-6.061-2.379-11.952-3.866-17.58a143.429,143.429,0,0,1-4.559-27.952L283.342,9.737a4,4,0,0,0-7.986.481l1.167,19.392a151.466,151.466,0,0,0,4.809,29.516c1.713,6.482,3.146,13.347,4.3,20.417a23.554,23.554,0,0,0-9.77,17.286l-1.307,17.279a19.724,19.724,0,0,1-3.769,10.186c-6.044,8.246-20.652,27.6-34.326,41.3A137.955,137.955,0,0,0,221.154,135.6a30.567,30.567,0,0,0,12.7-19.943,27,27,0,0,0,13.994-6.35c5.483-4.706,8.576-10.4,8.943-16.462a19.711,19.711,0,0,0-3.183-11.839l-.008-.019c-.016-.029-.038-.051-.054-.079a21.719,21.719,0,0,0-1.618-2.213c-7.551-8.932-13.346-16.716-16.181-21.672a14.653,14.653,0,0,0,4.348-12.177,4,4,0,0,0-3.976-3.558h-3.484c.287-3.765-.037-8.984-2.921-13.515a4.012,4.012,0,0,0-6.965.383c-.053.106-5.5,10.69-22.187,17.187-.876.335-21.534,8.419-27.9,27.672-3.507,10.615-1.954,22.327,4.612,34.895-18.377.418-67.86,4.455-100.062,34.5a62.812,62.812,0,0,0-7.6,8.53,33.365,33.365,0,0,1-6.019.063A15.369,15.369,0,0,1,52.6,144.876a16.413,16.413,0,0,1-3.053-12.908c2.428-13.007,14.356-20.825,14.467-20.9.076-.048.149-.1.221-.15C84.734,95.86,93.68,78.568,97.575,66.713A48,48,0,0,0,97.932,36.7,45.285,45.285,0,0,0,79.148,12.473a34.3,34.3,0,0,0-36.768-.691C27.772,20.821,26.1,37.367,27.256,44.854a17.63,17.63,0,0,0,4.217,9.168,17.041,17.041,0,0,0,1.782,1.714,10.676,10.676,0,0,0,12.935.64A11.145,11.145,0,0,0,50.9,44.238c.07-4.689,1.806-7.754,5.3-9.362a10.479,10.479,0,0,1,7.274-.448c10,2.872,8.416,18.867,8.4,19.02C71.872,53.481,71.869,53.515,71.866,53.549Zm145.054,187.1.634,1.571a16.712,16.712,0,0,0,15.529,10.52c5.231.012,10.58.171,14.146.3a11.878,11.878,0,0,1,8.745,4.346l2.661,3.248a11.839,11.839,0,0,1,2.451,9.922l-1.514,7.394a.507.507,0,0,1-.438.4.507.507,0,0,1-.565-.5v-1.8a15.686,15.686,0,0,0-17.224-15.611l-20.5,2.019a5.581,5.581,0,0,1-5.531-3.117A222.5,222.5,0,0,0,194.987,227.4a11.477,11.477,0,0,0,1.695-2.313,33.832,33.832,0,0,0,3.729-11.372,10.451,10.451,0,0,0,5.881-.218C210.63,225.04,214.64,234.988,216.92,240.647Zm-50.708-42.972a33.213,33.213,0,0,0,9.957-6.772l.852,1.836a4,4,0,0,0,5.85,1.642A31.32,31.32,0,0,0,194.4,177.29a159.468,159.468,0,0,0,11.014,16.5,31.329,31.329,0,0,1-.131,10.464,2.192,2.192,0,0,1-1.346,1.594,2.428,2.428,0,0,1-2.275-.2l-2.712-1.768a4,4,0,0,0-6.171,3.685,27.512,27.512,0,0,1-3.1,13.667,3.444,3.444,0,0,1-2.447,1.741,3.627,3.627,0,0,1-3.023-.828l-3-2.6c.047-.207.1-.419.142-.621,1.224-5.366-.99-10.682-6.233-14.969A76.455,76.455,0,0,0,166.212,197.675ZM200.6,274a18.492,18.492,0,0,0-19.338-3.231,142.24,142.24,0,0,1-14.408,4.846c4.807-16.45,9.228-34.258,12.3-47.274a11.571,11.571,0,0,0,7.41,2.691c.371,0,.743-.021,1.115-.057,8.741,11.64,15.8,22.654,20.486,31.966a13.755,13.755,0,0,0,4.972,5.489ZM78.419,225.557c.072.053.145.1.22.153.42.272,10.2,6.586,17.415,8.741a20.564,20.564,0,0,1,7.263,6.737,4,4,0,0,0,6.4.541,21.229,21.229,0,0,0,3.651-6.262c3.776,2.709,8.433,6.609,11.034,10.641a4,4,0,0,0,6.028.812,22.518,22.518,0,0,0,3.576-4.391l3.166,3.085-.359,49.435a12.338,12.338,0,0,0,.235,2.28,116.529,116.529,0,0,1-14.724,1.153c-5.144.073-10.208.229-15.052.464a4,4,0,0,0,.191,8c.065,0,.131,0,.2,0,4.753-.231,9.725-.385,14.777-.456a124.758,124.758,0,0,0,19.107-1.761c.229.18.45.369.694.534a12.3,12.3,0,0,0,11.494,1.21l26-10.5a4.371,4.371,0,0,1,5.621,2.093,20.238,20.238,0,0,1,1.8,7.989,11.535,11.535,0,0,0,.248,1.935,93.561,93.561,0,0,1-32.745,8.854c-2.868.236-6.2.5-9.858.79-10.979.871-25.614,2.031-39.365,3.4-1.26-6.147-4.211-13.952-11.052-19.79,4.712-3.328,11.977-8.577,17.279-12.948a21,21,0,0,0,7.542-14.008c.636-5.829,1.561-14.828,2.349-24.593a4,4,0,1,0-7.974-.644c-.781,9.672-1.7,18.59-2.328,24.368a13.045,13.045,0,0,1-4.677,8.7c-8.037,6.625-21.309,15.729-21.442,15.82a4,4,0,0,0,.316,6.8c8.036,4.471,11.085,12.4,12.227,18.265a2.448,2.448,0,0,1-.069,1.233,2.527,2.527,0,0,1-2.408,1.75,2.477,2.477,0,0,1-2.013-1.045,3.982,3.982,0,0,0-.557-.813c-5.985-9.238-15.635-15.5-22.769-19.144a2.612,2.612,0,0,1-1.4-1.924,2.721,2.721,0,0,1,.714-2.355l15.92-16.767a17.86,17.86,0,0,0,3.841-18.538c-4.816-13.183-8.768-28.516-11.533-40.647C77.736,225.014,78.066,225.292,78.419,225.557ZM244.233,81.974a58.341,58.341,0,0,0-10.971,10.463,4,4,0,1,0,6.236,5.011,50.255,50.255,0,0,1,8.939-8.623,11.2,11.2,0,0,1,.368,3.541c-.3,4.865-3.517,8.6-6.169,10.874a18.994,18.994,0,0,1-10.253,4.558c-12.934,1.459-21.3-10.693-21.379-10.8a4.007,4.007,0,0,0-4.19-1.688c-2.273.5-3.949.307-4.981-.578a3.156,3.156,0,0,1-1.071-2.361,3.771,3.771,0,0,1,1.212-2.839l5.932-5.475a32.488,32.488,0,0,0,8.777-13.3,15.557,15.557,0,0,1,11.709-10.481C232.012,66.862,239.172,75.9,244.233,81.974Z"/><path d="M149.956,213.58a13.924,13.924,0,0,1,7.257,3.75,4,4,0,0,0,5.471-5.837,21.644,21.644,0,0,0-11.782-5.858,4,4,0,0,0-.946,7.945Z"/><path d="M228.327,196.187a4,4,0,0,0,1.523-7.7L226.5,187.11a4,4,0,0,0-3.044,7.4l3.346,1.377A3.985,3.985,0,0,0,228.327,196.187Z"/><circle cx="226.733" cy="74.808" r="4"/></svg>