<?xml version="1.0" ?><svg id="outline" viewBox="0 0 340 340" xmlns="http://www.w3.org/2000/svg"><title/><path d="M293.133,248.483V228.515c9.98-48.934-21.146-59.765-30.95-61.921q-.9-.2-1.768-.433h0a34.2,34.2,0,0,1-5.06-1.79,101.914,101.914,0,0,1-9.181-4.677l-.021-.012a95.077,95.077,0,0,1-9.472-6.2,14.021,14.021,0,0,1-5.445-9.052l-.883-5.456a31.572,31.572,0,0,0,6.981-12.155l.084,0c.589,0,1.164-.02,1.722-.063a13.5,13.5,0,0,0,12.326-13.506V105.4a13.471,13.471,0,0,0-1.594-6.367A85.858,85.858,0,0,0,266.8,97.12a31.939,31.939,0,0,1-7.851,6.745,6.47,6.47,0,0,0-2.614,7.765,38.323,38.323,0,0,0,13.7,17.745,7.16,7.16,0,0,1,3.133,5.527c.044,2.59-1.309,4.9-4.135,7.048a4.08,4.08,0,0,0-1.634,3.505,4,4,0,0,0,3.8,3.722c1.047.051,10.248.791,10.442,11.265a9.114,9.114,0,0,1-1.123,4.685,4.094,4.094,0,0,0,1.047,5.251,4,4,0,0,0,5.88-1.245,17.144,17.144,0,0,0,2.194-8.839c-.18-9.684-5.48-14.841-10.8-17.275a14.931,14.931,0,0,0,2.328-8.254,15.176,15.176,0,0,0-6.451-11.877,30.508,30.508,0,0,1-10.445-12.949,39.107,39.107,0,0,0,14.738-17.746,3.824,3.824,0,0,0,.171-.426,50.037,50.037,0,0,0,3.488-15.551A58.656,58.656,0,0,0,281.35,59.38a3.975,3.975,0,0,0-.164-.758,63.567,63.567,0,0,0-14.255-27.386C243.9,5.191,210.345,5.883,207.119,6.012a76.179,76.179,0,0,0-14.748,1.175,4.129,4.129,0,0,0-3.5,4.283,4.006,4.006,0,0,0,4.668,3.635,77.414,77.414,0,0,1,9.588-1.052V54.625a31.4,31.4,0,0,0-5.716,1.273c-7.718-15.646-11.909-32.647-13.35-39.214a6.588,6.588,0,0,0-3.13-4.287h0a6.653,6.653,0,0,0-5.787-.429,71.961,71.961,0,0,0-27.823,19.268c-.034.039-.064.079-.1.117l-.018.022a63.554,63.554,0,0,0-14.13,27.209,4.03,4.03,0,0,0-.177.816,58.732,58.732,0,0,0-1.313,16.816,50.053,50.053,0,0,0,3.477,15.523,3.94,3.94,0,0,0,.188.468,39.1,39.1,0,0,0,14.76,17.75,30.574,30.574,0,0,1-10.473,12.932,15.175,15.175,0,0,0-6.451,11.876,14.939,14.939,0,0,0,2.328,8.254c-5.322,2.434-10.624,7.591-10.8,17.275-.116,6.229,2.9,11.631,8.6,15.653-9.751,8.448-17.9,24.007-12.109,52.5-.092,2.679-.484,15.793.084,28.673a126.82,126.82,0,0,0-15.073-11.305V235.628a14.375,14.375,0,0,0-14.375-14.375H87.458a14.818,14.818,0,0,0-5.8-4.687c-.048-31.451,4.226-181.4,4.518-187.323a12.2,12.2,0,0,0-1.725-7.051A11.928,11.928,0,0,0,67.205,18.88l-.586.442A35.87,35.87,0,0,0,52.888,43.886c-1.07,9.707-1.834,21.845-2.375,34.921,0,.029-.011.057-.013.086-.8,19.218-1.21,42.592-1.222,69.47,0,.043.008.085.01.127-.014,22.15.255,38.359.261,38.719-.034,6.929-.061,11.309-.108,17.947a4,4,0,0,0,4,4.029h0a4.006,4.006,0,0,0,4-3.977c.047-6.641.074-11.024.107-18.049-.006-.387-.264-15.955-.262-37.362A49.713,49.713,0,0,1,74.5,136.318c-.524,24.542-.878,51.47-.849,78.941H57.11a14.746,14.746,0,0,0-14.747,14.747v33a14.98,14.98,0,0,0,6.347,12.232c-.463,33.126-.93,54.477-.935,54.692a4,4,0,0,0,3.911,4.087h.09a4,4,0,0,0,4-3.912c0-.209.448-20.472.9-52.135.23.011.457.035.69.035H74.755c.342,14.985.646,34.851.37,50.911a5.22,5.22,0,0,0,3.292,4.931,1.555,1.555,0,0,0,.691.17,4,4,0,0,0,4-3.924c.322-17-.026-38.473-.393-54.025A15,15,0,0,0,90.364,263v-1.251h1.375a14.384,14.384,0,0,0,12.62-7.5,95.715,95.715,0,0,1,18.552,15.873c.028.033.065.056.095.088s.056.076.09.11a54.244,54.244,0,0,1,7.626,10.165,4,4,0,0,0,5.8,1.264,4.124,4.124,0,0,0,1.047-5.4c-1.026-1.777-2.107-3.407-3.149-4.859h16.365a108.211,108.211,0,0,0-4.595,44.284c-4.278-.018-11.572-.154-15.331-1.809l-1.014-.472a137.56,137.56,0,0,1-37.213-24.464,4,4,0,0,0-5.781.446,4.145,4.145,0,0,0,.579,5.636,144.8,144.8,0,0,0,39.041,25.635l1,.467c5.66,2.711,15.278,2.51,19.679,2.538.336,2.271.727,4.605,1.2,7.023a4,4,0,0,0,3.922,3.241,4.086,4.086,0,0,0,.765-.074,4,4,0,0,0,3.167-4.687c-5.944-30.725-.056-48.583,3.84-60.4l.607-1.848a68.107,68.107,0,0,0,2.975-12.765,15.068,15.068,0,0,1,3.362,3.28,4,4,0,0,0,5.675.9,4.132,4.132,0,0,0,.723-5.7c-3.824-5.276-10.431-8.25-11.877-8.856-8.942-4.54-9.8-15.871-9.81-15.97,0-.017-.007-.032-.008-.049s0-.034,0-.051c-.353-4.195-.235-12.088,1.576-15.46a3.929,3.929,0,0,0-.307-4.387,4.025,4.025,0,0,0-6.706.538c-2.365,4.35-2.754,11.174-2.716,15.644H128.422c-4.611-26.349,4.4-38.935,13.722-44.94a4,4,0,0,0,1.094-.671,35.581,35.581,0,0,1,8.028-3.456c1.482,13.4,6.076,24.336,13.7,32.613h0c1.02,1.107,2.082,2.176,3.21,3.187a51.335,51.335,0,0,0,16.307,9.747,67.885,67.885,0,0,0,.41,15.708c-.007,2.381.081,16.347,2.964,25.8a4,4,0,0,0,3.825,2.834,3.992,3.992,0,0,0,3.79-5.289,61.516,61.516,0,0,1-1.969-11.064,16.353,16.353,0,0,0,3.6,1.421,36.381,36.381,0,0,0,6.013.985v13.237a4.118,4.118,0,0,0,3.607,4.154,4,4,0,0,0,4.393-3.982V251a36.41,36.41,0,0,0,6.014-.985,16.269,16.269,0,0,0,3.6-1.423,61.384,61.384,0,0,1-1.971,11.066,3.992,3.992,0,0,0,3.791,5.289,4,4,0,0,0,3.825-2.834c2.888-9.468,2.971-23.47,2.964-25.812.169-1.046.313-2.143.419-3.284a4.092,4.092,0,0,0-2.812-4.332,4,4,0,0,0-5.143,3.473c-.1,1.123-.238,2.2-.408,3.188a8.646,8.646,0,0,1-6.287,6.927,35.437,35.437,0,0,1-15.993,0,8.645,8.645,0,0,1-6.287-6.926,57.034,57.034,0,0,1-.494-12.386,59.65,59.65,0,0,0,14.777,1.559c.257.01.7.023,1.314.023,5.37,0,23.482-1,37.631-13.682,1.128-1.011,2.19-2.08,3.21-3.187h0c7.629-8.277,12.223-19.213,13.705-32.613,10.727,3.152,29.027,13.732,22.843,49.067H270.714c.037-4.378-.335-11.013-2.571-15.371a4.11,4.11,0,0,0-4.915-2.162,4,4,0,0,0-2.258,5.71c1.818,3.342,1.941,11.275,1.591,15.49,0,.017,0,.032,0,.049s-.007.032-.008.049c-.007.114-.774,11.382-9.81,15.97-1.447.606-8.065,3.586-11.888,8.871a4.125,4.125,0,0,0,.74,5.694,4,4,0,0,0,5.67-.9,15.063,15.063,0,0,1,3.361-3.28c.393,3.206,3.582,14.613,3.582,14.613,3.9,11.816,9.785,29.674,3.841,60.4a4,4,0,0,0,3.167,4.687,4.078,4.078,0,0,0,.765.074,4,4,0,0,0,3.922-3.241c5.533-28.6,1.453-46.749-2.438-59.284h22.518c1.567,7.188,5.089,27.559,3,58.252a4,4,0,0,0,3.719,4.263q.14.009.276.009a4,4,0,0,0,3.987-3.729c2.521-37.09-2.821-59.489-3.835-63.327ZM60.839,44.763A27.835,27.835,0,0,1,71.467,25.686l.515-.388A3.89,3.89,0,0,1,78.194,28.6c-.259,5.226-.85,17.7-1.523,35.224a63.092,63.092,0,0,0-17.8,7.324C59.365,61.338,60.009,52.3,60.839,44.763ZM58.424,81.075a55.441,55.441,0,0,1,17.93-8.905c-.064,1.749-.441,12.617-.511,14.746a53.318,53.318,0,0,0-17.856,7.1C58.111,89.641,58.256,85.313,58.424,81.075Zm-1.112,57.162c.018-3.883.045-7.884.085-11.961a68.712,68.712,0,0,1,10.818-7.159,4,4,0,1,0-3.707-7.09,71.376,71.376,0,0,0-6.989,4.214c.061-4.13.134-8.3.225-12.462,2.94-2.143,10.071-6.884,17.84-8.663-.338,10.849-.64,21.692-.892,32.449A55.158,55.158,0,0,0,57.312,138.237ZM82.364,263a7.009,7.009,0,0,1-7,7h-18a7.008,7.008,0,0,1-7-7v-33a6.754,6.754,0,0,1,6.747-6.747H75.617a6.754,6.754,0,0,1,6.747,6.747Zm15.75-15.626a6.382,6.382,0,0,1-6.375,6.375H90.364V230.006c0-.254-.026-.5-.038-.753h1.413a6.382,6.382,0,0,1,6.375,6.375Zm38.393,16.114H129.58c-.005-.068-.548-10.926-.551-11.009h7.478Zm-7.5-31.366H144.28c1.032,4.748,3.882,12.859,11.646,17.761a49,49,0,0,1-2.556,13.605h-8.863V251.968a3.987,3.987,0,0,0-1.926-7.485H128.9C128.872,239.488,128.939,235.079,129.006,232.126ZM243.462,113.252a5.47,5.47,0,0,1-4.785,5.5c.014-.384.029-.768.029-1.156V99.9a5.566,5.566,0,0,1,4.756,5.5Zm31.225-37.589a43.4,43.4,0,0,1-2.333,11.659,76.771,76.771,0,0,1-33.648,3V85.944c0-.478-.015-.952-.036-1.425A93.312,93.312,0,0,0,274.57,67.5,49.853,49.853,0,0,1,274.687,75.663ZM272.9,58.522a86.417,86.417,0,0,1-35.6,18.1,31.313,31.313,0,0,0-2.419-5.734c15.784-11.972,25.06-23.695,29.453-30.119A55.373,55.373,0,0,1,272.9,58.522ZM211.125,14.056a80.076,80.076,0,0,1,18.929,3.258A192.181,192.181,0,0,1,220.6,47.59a4,4,0,0,0,7.4,3.055,198.34,198.34,0,0,0,9.656-30.605,64.335,64.335,0,0,1,21.3,14.357c-3.267,5.064-12.234,17.431-28.758,30.009a31.525,31.525,0,0,0-19.068-9.781Zm-4,48.306a23.623,23.623,0,0,1,22.533,16.623,22.045,22.045,0,0,1-20.417-5.008,4,4,0,0,0-6.85,2.188l-.368,2.529a4.279,4.279,0,0,1-1.695,2.841,4.149,4.149,0,0,1-3.11.787,18.5,18.5,0,0,1-3.79-.977,4,4,0,1,0-2.832,7.482,26.59,26.59,0,0,0,5.435,1.408,12.43,12.43,0,0,0,1.821.135,12.1,12.1,0,0,0,7.247-2.414,12.241,12.241,0,0,0,3.7-4.414,29.937,29.937,0,0,0,21.912,3.412V117.6a23.582,23.582,0,1,1-47.163,0V85.944A23.609,23.609,0,0,1,207.125,62.362Zm19.893,92.459c-2,7.246-7.083,17.5-19.893,17.5s-17.9-10.253-19.892-17.5a22.13,22.13,0,0,0,3.682-9.114l.151-.929a31.483,31.483,0,0,0,32.119,0l.15.929A22.145,22.145,0,0,0,227.018,154.821Zm-77.1-114.05A128.7,128.7,0,0,0,172.653,65.5a4,4,0,0,0,5.185-6.092,118,118,0,0,1-22.526-24.99,64.146,64.146,0,0,1,21.285-14.4c1.769,7.779,6.013,23.943,13.577,39.3a31.711,31.711,0,0,0-13.226,17.308,86.43,86.43,0,0,1-35.6-18.1A55.38,55.38,0,0,1,149.916,40.771ZM141.9,87.322a43.4,43.4,0,0,1-2.332-11.659,49.84,49.84,0,0,1,.117-8.158,93.329,93.329,0,0,0,35.9,17.014c-.021.473-.037.947-.037,1.425v4.375A76.73,76.73,0,0,1,141.9,87.322Zm33.677,31.434a5.47,5.47,0,0,1-4.785-5.5V105.4a5.569,5.569,0,0,1,4.755-5.5v17.7C175.543,117.988,175.559,118.372,175.573,118.756Zm-21.731,47.4-.008,0q-.872.235-1.767.433a44.91,44.91,0,0,0-11.668,4.381c-5.245-2.7-7.871-6.234-7.791-10.533.187-10.119,8.754-11.161,10.442-11.266a4,4,0,0,0,3.8-3.723,4.084,4.084,0,0,0-1.633-3.5c-2.827-2.152-4.18-4.458-4.137-7.048a7.158,7.158,0,0,1,3.133-5.526A38.425,38.425,0,0,0,157.656,112.4a7.438,7.438,0,0,0,0-5.563l-.028-.07a7.373,7.373,0,0,0-2.547-3.237,48.748,48.748,0,0,1-7.623-6.413,85.86,85.86,0,0,0,16.929,1.913,13.472,13.472,0,0,0-1.595,6.367v7.852a13.5,13.5,0,0,0,12.327,13.507c.557.041,1.132.062,1.718.062l.086,0a31.607,31.607,0,0,0,6.982,12.155l-.882,5.456a14.021,14.021,0,0,1-5.445,9.052,95.123,95.123,0,0,1-9.474,6.2l-.018.011a102.1,102.1,0,0,1-9.183,4.677A34.352,34.352,0,0,1,153.842,166.16Zm13.8,32.117c-4.752-6.748-7.62-15.246-8.565-25.386,1.056-.373,2.094-.772,3.09-1.218,1.875-.838,3.65-1.7,5.333-2.562a53.277,53.277,0,0,0,9.061,19.067A50.123,50.123,0,0,0,167.64,198.277Zm35.485,18.172a56.255,56.255,0,0,1-13.061-2.393l-.051-.016a44.375,44.375,0,0,1-16.492-9.139c-.137-.123-.265-.255-.4-.38a43.151,43.151,0,0,1,9-10.57,36.515,36.515,0,0,0,21.009,8.269Zm4-22.05c-9.855,0-16.832-3.461-21.781-8.36a4.094,4.094,0,0,0-.32-.325c-5.908-6.03-8.841-14.119-10.291-20.668,2.383-1.461,4.445-2.852,6.161-4.082,3.168,8.045,10.432,19.356,26.231,19.356s23.064-11.311,26.232-19.356c1.716,1.23,3.778,2.621,6.161,4.082-1.449,6.547-4.381,14.633-10.286,20.663a4.1,4.1,0,0,0-.334.338C223.95,190.942,216.975,194.4,207.125,194.4Zm4,22.079V202.22a36.527,36.527,0,0,0,21.01-8.268,43.12,43.12,0,0,1,9,10.574C230.773,214.161,217.543,216.127,211.125,216.478Zm35.47-18.226a50.129,50.129,0,0,0-8.9-10.074,53.3,53.3,0,0,0,9.061-19.066c1.682.863,3.457,1.723,5.331,2.561,1,.446,2.033.844,3.088,1.216C254.145,183.866,250.922,192.092,246.6,198.252Zm38.538,65.24h-7.082V252.483h7.082Zm0-19.009H270.664a3.992,3.992,0,0,0-.613,7.938v11.071h-9.17a49.114,49.114,0,0,1-2.56-13.6c7.766-4.9,10.617-13.015,11.649-17.763h15.163Z"/><path d="M207.125,135.366c14.283,0,18.194-13.768,18.267-21.048a4,4,0,0,0-4-4.041H192.858a4,4,0,0,0-4,4.041C188.931,121.6,192.842,135.366,207.125,135.366Zm9.743-17.089c-.89,3.863-3.288,9.089-9.743,9.089-6.48,0-8.872-5.2-9.753-9.089Z"/><path d="M193.425,102.1l3.334,1.473a4,4,0,1,0,3.234-7.318l-3.335-1.474a4,4,0,1,0-3.233,7.319Z"/><path d="M215.876,103.919a4,4,0,0,0,1.616-.342l3.334-1.473a4,4,0,0,0-3.233-7.319l-3.335,1.474a4,4,0,0,0,1.618,7.66Z"/><path d="M207.125,307.655a4,4,0,0,0-4,4V315.8a4,4,0,0,0,8,0v-4.147A4,4,0,0,0,207.125,307.655Z"/></svg>