<?xml version="1.0" ?><svg id="outline" viewBox="0 0 340 340" xmlns="http://www.w3.org/2000/svg"><title/><path d="M82.832,221.76a263.36,263.36,0,0,1,20.162,21.422,15.611,15.611,0,0,0,12.192,5.83h20.63a8.336,8.336,0,0,0,8.326-8.326,12.7,12.7,0,0,0-8.6-12.018l-8.926-3.045a13.682,13.682,0,0,1-4.714-2.734,26.251,26.251,0,0,1-4.519-5.144,13.327,13.327,0,0,1-2.1-7.874,89.67,89.67,0,0,1,5.431-27.429c.039-.087.067-.177.1-.267a66.185,66.185,0,0,1,13.994-22.588,95.8,95.8,0,0,1,9.59,6.27c-1.313,1.841-2.751,3.993-4.225,6.456l-9.533,2.909a3.894,3.894,0,1,0,2.273,7.448L135.1,182a85.989,85.989,0,0,0-5.611,16.581c-.109.486-.2.975-.279,1.467A23.07,23.07,0,0,1,127,197.836a3.809,3.809,0,0,0-5.115-.556l-.088.065a3.817,3.817,0,0,0-.784,5.383,20.478,20.478,0,0,0,8.54,6.7c.006.027.01.055.016.082a37.657,37.657,0,0,0,2.585,7.42,24.3,24.3,0,0,0,6.168,8.025c2.756,2.372,8.513,5.448,14.667,7.839a6.942,6.942,0,0,1,4.376,6.446,1.987,1.987,0,0,1-1.985,1.985H152.74a3.894,3.894,0,0,0,0,7.788h2.635a9.784,9.784,0,0,0,9.772-9.773,14.778,14.778,0,0,0-9.343-13.705c-5.832-2.266-10.657-4.976-12.407-6.483a16.593,16.593,0,0,1-4.214-5.462,29.986,29.986,0,0,1-2.043-5.884,16.2,16.2,0,0,1-.286-1.608v0c-.007-.095-.031-.184-.045-.276a16.471,16.471,0,0,1,.282-5.523,81.7,81.7,0,0,1,9.1-22.849l.021-.035c1.566-2.7,3.11-5.045,4.5-7a69.445,69.445,0,0,0,33.975,10.362c1.208,9.711,5.389,37.438,15.9,60.33a13.821,13.821,0,0,0,12.524,8.033h6.311a9.624,9.624,0,0,0,8.4-14.317,22.333,22.333,0,0,0-5.695-6.688,5.169,5.169,0,0,1-1.969-3.676c-.426-6.008-.838-20.994,4.53-30.372a12.238,12.238,0,0,1,8.348-5.877,94.238,94.238,0,0,0-2.34,10.311h-1.067a3.894,3.894,0,1,0,0,7.787h.037a105.262,105.262,0,0,0-.359,14.864,12.713,12.713,0,0,0,5.393,9.818,20.494,20.494,0,0,1,5.2,5.089,3.2,3.2,0,0,1,.184,3.363,3.342,3.342,0,0,1-2.984,1.826,3.894,3.894,0,0,0,.019,7.788h.019a11.154,11.154,0,0,0,9.845-6,11.031,11.031,0,0,0-.661-11.382,27.767,27.767,0,0,0-7.2-7.091,4.886,4.886,0,0,1-2.04-3.784,98.312,98.312,0,0,1,.724-17.235,3.831,3.831,0,0,0,.192-1.148c0-.055-.014-.1-.016-.158a85.506,85.506,0,0,1,3.283-14.343c1.449-.015,2.988-.04,4.639-.087a3.894,3.894,0,0,0-.222-7.784c-2.7.077-5.152.094-7.319.109-1.242.009-2.377.017-3.388.035a20.118,20.118,0,0,0-17.05,10.032c-6.2,10.829-6.13,26.446-5.539,34.79a12.979,12.979,0,0,0,4.912,9.238,14.584,14.584,0,0,1,3.72,4.369,1.812,1.812,0,0,1-.019,1.833,1.775,1.775,0,0,1-1.58.9h-6.311a6.014,6.014,0,0,1-5.448-3.5,174.71,174.71,0,0,1-10.705-32.788,12.764,12.764,0,0,1,3.425,2.231,3.894,3.894,0,1,0,5.2-5.8,19.209,19.209,0,0,0-10.444-4.967c-2.125-10.872-2.987-18.878-3.092-19.9l-.546-16.961a34.708,34.708,0,0,0,11.833-9.229,3.893,3.893,0,1,0-6.095-4.846c-2.549,3.2-6.042,5.709-11.327,8.119l0,0a3.817,3.817,0,0,0-.667.39,3.436,3.436,0,0,0-.264.231,4.025,4.025,0,0,0-.3.269c-.088.095-.158.2-.236.306a3.536,3.536,0,0,0-.222.294c-.059.095-.1.2-.149.3a3.807,3.807,0,0,0-.185.38c-.042.112-.064.231-.1.347s-.079.248-.1.379a3.881,3.881,0,0,0-.053.77v0l.5,15.563c-11.455-.549-24.027-4.846-32.318-11.253a108.788,108.788,0,0,0-13.243-8.92,52.378,52.378,0,0,0,1.009-12.228,81.315,81.315,0,0,0,31.2,17.257,3.894,3.894,0,1,0,2.238-7.459c-24.406-7.322-35.356-23.328-35.458-23.48a3.894,3.894,0,0,0-7.068,2.9c1.74,8.862,1.748,16.412.064,23.063a72.582,72.582,0,0,0-16.19,24.5,31.077,31.077,0,0,1-7.757.1,3.894,3.894,0,1,0-.948,7.73,36.024,36.024,0,0,0,4.4.263c.484,0,.974-.017,1.463-.035a98.851,98.851,0,0,0-4.027,24.207,21.072,21.072,0,0,0,3.372,12.439,34.063,34.063,0,0,0,5.85,6.685,21.414,21.414,0,0,0,7.378,4.287l8.925,3.045a4.912,4.912,0,0,1,3.326,4.648.539.539,0,0,1-.538.538h-20.63a7.858,7.858,0,0,1-6.136-2.937,271.055,271.055,0,0,0-20.815-22.136,8.247,8.247,0,0,1-2.476-6.783,241.2,241.2,0,0,0,1.105-25.714,21.489,21.489,0,0,0-1.574-7.99c-3.745-9.217-10.624-20.924-15.736-29.123a21.106,21.106,0,0,1-3.091-12.908l.837-9.67a3.894,3.894,0,1,0-7.758-.672l-.837,9.67a28.933,28.933,0,0,0,4.241,17.7C67,157.16,74.352,169.433,78.075,178.6a13.717,13.717,0,0,1,1,5.109,232.888,232.888,0,0,1-1.059,24.818A16.089,16.089,0,0,0,82.832,221.76Z"/><path d="M333.767,144.773a3.893,3.893,0,0,0-2.65-3.463c-.346-.117-7.867-2.543-18.407.519A180.427,180.427,0,0,0,272.736,93.25a68.445,68.445,0,0,0-13.082-8.61c-.07-.034-.136-.076-.208-.105a68.258,68.258,0,0,0-28.331-7.26c-13.608-.445-33.563-2.114-51.393-7.548a197.245,197.245,0,0,0-61.024-6.22A115.662,115.662,0,0,0,39.807,102.08l-.031.034,0,0a143.686,143.686,0,0,0-25.457,41.664l-.015.038c-.232.586-.464,1.172-.689,1.767A122.013,122.013,0,0,0,9.82,157.375c-.017.053-.028.107-.043.161-5.162,19.492-4.748,38.55,1.164,56.5a3.874,3.874,0,0,0,.28.825,104.849,104.849,0,0,0,14.587,27.868c.7.993,17.542,24.427,52.377,33.608A14.423,14.423,0,0,0,87.7,249.217C78.28,244.981,64.745,237.5,53.78,225.884c-15.162-16.056-20.638-39.54-14.292-61.285,3.1-10.631,7.771-19.695,13.874-26.941a3.894,3.894,0,0,0-5.956-5.017c-1.285,1.525-2.492,3.141-3.66,4.8l-3.73-2.27a3.894,3.894,0,0,0-4.048,6.653l3.644,2.217a88.825,88.825,0,0,0-7.6,18.374A71.861,71.861,0,0,0,40.226,221.1c.537,1.45,3.29,9.342,2.1,15.487a3.894,3.894,0,1,0,7.646,1.48,24.849,24.849,0,0,0,.423-4.512,114.51,114.51,0,0,0,28.187,19.92,12.556,12.556,0,0,1-2.172,4.164,3.894,3.894,0,0,0,5.151,5.841,17.533,17.533,0,0,0,4.039-6.539,6.648,6.648,0,0,1,2.392,7.743A6.571,6.571,0,0,1,80.17,268.8a94.431,94.431,0,0,1-23.218-9.562,26.179,26.179,0,0,0,3.034-1.513A3.894,3.894,0,1,0,56.061,251a16.24,16.24,0,0,1-8.095,2.34c-10.463-7.751-15.718-15-15.823-15.145A101.306,101.306,0,0,1,20.654,217.98a11.68,11.68,0,0,1,6.878,8.689,3.894,3.894,0,0,0,7.668-1.36,19.47,19.47,0,0,0-17.69-16.022A88.089,88.089,0,0,1,16.163,164.1c1.345,1.35,2.562,3.812,2.269,8.317a3.894,3.894,0,0,0,3.634,4.138c.086.006.171.009.256.009a3.9,3.9,0,0,0,3.882-3.642c.628-9.676-3.739-14.639-7.942-16.813q.975-3.222,2.164-6.474l5.607.992a3.963,3.963,0,0,0,.682.06,3.894,3.894,0,0,0,.673-7.729l-3.993-.706a143.038,143.038,0,0,1,15.928-27.231,38.111,38.111,0,0,0,1.947,6.935,3.894,3.894,0,0,0,7.259-2.822,32.34,32.34,0,0,1-2.064-12.8A107.814,107.814,0,0,1,119.17,71.281c3.463-.21,6.871-.3,10.2-.292,3.43,6.3,8.328,10.36,14.289,11.8a15.56,15.56,0,0,0,3.649.427,18.145,18.145,0,0,0,4.766-.662,3.894,3.894,0,1,0-2.047-7.514,9,9,0,0,1-4.545.178,12.776,12.776,0,0,1-6.461-3.957,191.126,191.126,0,0,1,38.473,5.932c1.489.453,2.994.873,4.5,1.278a19.7,19.7,0,0,0,9.483,13.546,3.894,3.894,0,0,0,3.9-6.743,11.507,11.507,0,0,1-4.5-4.7,233.13,233.13,0,0,0,34.757,4.267c1.8,6.116,6.082,10.5,12.542,12.759a18.459,18.459,0,0,0,6.127,1.064c4.813,0,9.627-1.955,14.23-5.793a60.577,60.577,0,0,1,9.195,6.35c2.964,2.486,5.76,5.047,8.4,7.631.925,1.2,6.846,9.417,7.426,23.119a3.894,3.894,0,0,0,3.887,3.729c.055,0,.111,0,.167,0a3.894,3.894,0,0,0,3.726-4.055,57.194,57.194,0,0,0-.657-6.568A182.83,182.83,0,0,1,302.514,139.9c-1.544-.35-3.2-.666-4.924-.9a3.894,3.894,0,1,0-1.043,7.717,55.759,55.759,0,0,1,12.734,3.423c.05.022.1.03.154.049.114.044.229.078.347.111a3.709,3.709,0,0,0,.375.088c.118.02.237.032.358.042s.255.016.383.014.243-.014.365-.028a3.8,3.8,0,0,0,.382-.061c.12-.026.237-.06.355-.1.07-.022.142-.032.211-.058a29.5,29.5,0,0,1,13.731-2.01,19.242,19.242,0,0,1-5.738,11.933,3.894,3.894,0,0,0-1.252,3.862,54.255,54.255,0,0,1,1.263,18.706,9.871,9.871,0,0,1-3.926,6.767c-6.853,5.195-13.027,12.862-16.1,16.97a4.65,4.65,0,0,1-3.706,1.856h-9.54a4.625,4.625,0,0,1-3.693-1.839c-3.07-4.109-9.242-11.779-16.1-16.977a9.912,9.912,0,0,1-3.942-6.8,54.283,54.283,0,0,1,1.266-18.687,3.894,3.894,0,0,0-1.252-3.862,19.2,19.2,0,0,1-5.739-11.932,29.527,29.527,0,0,1,13.731,2.009,3.908,3.908,0,0,0,2.926-.057c.013-.006,1.282-.545,3.3-1.209a3.893,3.893,0,1,0-2.426-7.4c-.988.323-1.825.624-2.471.866-11.493-3.93-19.875-1.214-20.239-1.091a3.891,3.891,0,0,0-2.65,3.463,27.191,27.191,0,0,0,6.772,19.511,61.6,61.6,0,0,0-.959,19.277,17.868,17.868,0,0,0,6.972,12.112,54.121,54.121,0,0,1,5.308,4.67,71.189,71.189,0,0,0-6.96,2.554,3.894,3.894,0,1,0,3.093,7.147,70.879,70.879,0,0,1,9.709-3.276c1.366,1.649,2.528,3.153,3.413,4.338a12.449,12.449,0,0,0,9.932,4.965h9.54c.092,0,.183-.014.275-.016.016,0,.03.007.045.008a32.31,32.31,0,0,1,17.877,8.684,3.894,3.894,0,0,0,5.337-5.672,41.461,41.461,0,0,0-13.263-8.419c2.917-3.863,8.366-10.543,14.235-14.991a17.833,17.833,0,0,0,6.958-12.08,61.586,61.586,0,0,0-.956-19.3A27.2,27.2,0,0,0,333.767,144.773ZM240.751,90.245a11.691,11.691,0,0,1-6.5-4.965,60.4,60.4,0,0,1,16.211,3.772A11.383,11.383,0,0,1,240.751,90.245Z"/><path d="M83.18,110.13a10.144,10.144,0,0,0-3.8,7.9,12.687,12.687,0,0,0,1.591,6.667c1.058,1.743,3.388,3.735,8.508,3.735q.585,0,1.219-.036a10.182,10.182,0,0,0,6.353-2.735l3.747-3.5a10.23,10.23,0,0,0-13.417-15.429Zm4.9,6.054,4.2-3.4a2.442,2.442,0,0,1,3.2,3.684l-3.747,3.5a2.384,2.384,0,0,1-1.479.651,7.782,7.782,0,0,1-2.746-.207,6.412,6.412,0,0,1-.343-2.374,2.389,2.389,0,0,1,.909-1.854Z"/><path d="M164.748,87.312a40.374,40.374,0,0,0-5.989-.067h0a19.244,19.244,0,0,0-7.821,2.164c-4.449,2.379-6.859,6.074-6.8,10.42a9.356,9.356,0,0,0,5.684,8.791,11.229,11.229,0,0,0,4.667.992,12.317,12.317,0,0,0,4.383-.814l8.531-3.257a9.44,9.44,0,0,0-2.651-18.229Zm-.127,10.953-8.532,3.258a3.972,3.972,0,0,1-3.034.014,1.652,1.652,0,0,1-1.133-1.391,1.345,1.345,0,0,0,0-.356c-.016-.56-.058-2.045,2.687-3.513a11.527,11.527,0,0,1,4.681-1.263,32.433,32.433,0,0,1,4.822.06,1.67,1.67,0,0,1,1.565,1.657A1.652,1.652,0,0,1,164.621,98.265Z"/><path d="M162.644,116.758l-2.147,1a9.427,9.427,0,0,0-4.677,12.369,11.759,11.759,0,0,0,7.814,6.465,8.85,8.85,0,0,0,2.482.351,9.5,9.5,0,0,0,4.654-1.232l6.2-3.495a9.446,9.446,0,0,0-5.078-17.664,24.811,24.811,0,0,0-9.221,2.2Zm1.129,8.06,2.135-.989a17.023,17.023,0,0,1,6.326-1.5,1.681,1.681,0,0,1,1.713,1.3,1.648,1.648,0,0,1-.805,1.8l-6.2,3.5a1.512,1.512,0,0,1-1.126.189,4.035,4.035,0,0,1-2.9-2.2A1.637,1.637,0,0,1,163.773,124.818Z"/><path d="M196.288,99.847a10.622,10.622,0,0,0-9.648,8.268,10.441,10.441,0,0,0,4.755,11.536l.26.155a20.573,20.573,0,0,0,10.435,2.405q1,0,2.052-.062a10.793,10.793,0,0,0,9.81-8.237l.015-.063a10.641,10.641,0,0,0-6.119-12.258A24.454,24.454,0,0,0,196.288,99.847Zm8.506,8.908a2.9,2.9,0,0,1,1.595,3.3l-.011.042a2.96,2.96,0,0,1-2.691,2.279c-3.442.2-6.329-.261-8.118-1.3l-.107-.063a2.707,2.707,0,0,1-1.248-3.082,2.918,2.918,0,0,1,2.669-2.316q.816-.063,1.6-.062A15.966,15.966,0,0,1,204.794,108.755Z"/><path d="M214.907,137.348a10.376,10.376,0,0,0,4.924,19.509h5.042a10.346,10.346,0,0,0,9.183-5.547l1.08-2.053a10.43,10.43,0,0,0-3.09-13.225l-.987-.716h0a10.429,10.429,0,0,0-11.018-.736Zm10.055,3.779a2.593,2.593,0,0,1,1.522.491l.988.717a2.6,2.6,0,0,1,.771,3.3l-1.08,2.053a2.58,2.58,0,0,1-2.29,1.383h-5.042A2.587,2.587,0,0,1,218.6,144.2l5.134-2.768A2.577,2.577,0,0,1,224.962,141.127Z"/><path d="M120.674,90.815l-6.4,2.956a4.024,4.024,0,0,1-3.334.013,3.894,3.894,0,1,0-3.192,7.1,11.8,11.8,0,0,0,9.79-.046l6.4-2.956a9.734,9.734,0,0,0-3.815-18.568l-7.049-.193a3.894,3.894,0,1,0-.213,7.785l7.049.193a1.946,1.946,0,0,1,.763,3.713Z"/><path d="M269.332,224.746a34.1,34.1,0,0,1,5.96-4.49,3.894,3.894,0,1,0-3.97-6.7A41.837,41.837,0,0,0,264,219.075a3.894,3.894,0,1,0,5.337,5.671Z"/><path d="M323.216,202.9c-.855-.369-1.716-.717-2.568-1.04a3.894,3.894,0,0,0-2.764,7.28c.743.282,1.494.585,2.238.907a3.894,3.894,0,1,0,3.094-7.147Z"/><path d="M283.827,181.214l-2.385-1.4a3.893,3.893,0,1,0-3.947,6.712l2.385,1.4a3.894,3.894,0,1,0,3.947-6.713Z"/><path d="M284.458,156.581a3.894,3.894,0,0,0-5.5.289,17.946,17.946,0,0,0-3.6,14.4,3.893,3.893,0,0,0,3.835,3.253,3.84,3.84,0,0,0,.646-.054,3.893,3.893,0,0,0,3.2-4.481,10.141,10.141,0,0,1,1.739-7.948A3.893,3.893,0,0,0,284.458,156.581Z"/><path d="M301.992,179.812l-2.385,1.4a3.894,3.894,0,1,0,3.947,6.713l2.385-1.4a3.893,3.893,0,1,0-3.947-6.712Z"/><path d="M304.474,156.87a3.894,3.894,0,0,0-5.788,5.21,10.268,10.268,0,0,1,1.706,7.911,3.892,3.892,0,0,0,3.2,4.481,3.82,3.82,0,0,0,.645.054,3.9,3.9,0,0,0,3.836-3.253A17.949,17.949,0,0,0,304.474,156.87Z"/><path d="M126.747,120.207a3.892,3.892,0,0,0,4.856-3.315,4.015,4.015,0,0,0-3.085-4.27,18.776,18.776,0,0,0-5.9-.624,3.955,3.955,0,0,0,.494,7.893A12.839,12.839,0,0,1,126.747,120.207Z"/><path d="M96.309,139.2a3.894,3.894,0,0,0,3.238,4.454c.039.006,4.024.817,4.619,7.367a3.894,3.894,0,0,0,3.873,3.541c.118,0,.238,0,.358-.016a3.9,3.9,0,0,0,3.525-4.231c-1.148-12.626-10.75-14.288-11.159-14.353A3.9,3.9,0,0,0,96.309,139.2Z"/><path d="M91.635,152.019a20.017,20.017,0,0,1-4.4-5.8,3.894,3.894,0,1,0-6.905,3.6,27.937,27.937,0,0,0,6.081,7.977,3.894,3.894,0,0,0,5.221-5.778Z"/><path d="M91.534,179.6a3.894,3.894,0,1,0,4.809-6.125,8.1,8.1,0,0,1-.676-.582,3.894,3.894,0,0,0-5.647,5.363A13.981,13.981,0,0,0,91.534,179.6Z"/><path d="M101,193.1a3.894,3.894,0,0,0-5.365,1.243c-1.668,2.674-3.4,5.932-3.558,9.821a3.893,3.893,0,0,0,3.727,4.054c.055,0,.111,0,.166,0a3.9,3.9,0,0,0,3.888-3.731c.069-1.655.782-3.457,2.385-6.026A3.9,3.9,0,0,0,101,193.1Z"/><path d="M77.867,89.5c-3.983,1.195-7.842,5.076-8.575,5.842a3.894,3.894,0,0,0,5.623,5.389c1.245-1.293,3.679-3.319,5.19-3.772A3.894,3.894,0,0,0,77.867,89.5Z"/><path d="M209.478,95.066q.659-.061,1.337-.142a3.894,3.894,0,0,0-.92-7.734c-.385.047-.764.086-1.135.121a3.894,3.894,0,0,0,.354,7.772C209.235,95.083,209.357,95.077,209.478,95.066Z"/><path d="M183.64,137.231a3.9,3.9,0,0,0,3.894,3.894h1.952a3.894,3.894,0,0,0,0-7.788h-1.952A3.9,3.9,0,0,0,183.64,137.231Z"/><path d="M225.6,118.359c.241-.037,5.874-.845,8.2,5.965a3.894,3.894,0,0,0,7.371-2.513c-3.531-10.357-12.525-11.819-16.783-11.144a3.894,3.894,0,1,0,1.216,7.692Z"/><path d="M246.643,135.639h2.27a3.894,3.894,0,0,0,0-7.788h-2.27a3.894,3.894,0,0,0,0,7.788Z"/><path d="M263.47,104.928c-8.705-5.607-15.892-2.091-18.476.551a3.907,3.907,0,0,0,2.769,6.659,3.815,3.815,0,0,0,2.74-1.156c.545-.508,3.527-2.871,8.75.493a3.894,3.894,0,1,0,4.217-6.547Z"/><path d="M259.394,122.317a3.908,3.908,0,0,0,3.051,4.571,9.285,9.285,0,0,1,3.692,1.8,3.894,3.894,0,0,0,5.087-5.9,16.975,16.975,0,0,0-7.3-3.549A3.879,3.879,0,0,0,259.394,122.317Z"/><path d="M204.854,171.9a3.892,3.892,0,0,0,1.552-5.283l-.51-.934a3.894,3.894,0,0,0-6.835,3.731l.51.934a3.891,3.891,0,0,0,5.283,1.552Z"/><path d="M230.176,164.967a8.884,8.884,0,0,1-3.887.695,3.908,3.908,0,0,0-3.6,1.818l-.079.129a3.831,3.831,0,0,0,2.963,5.818c.383.031.782.048,1.2.048a16.846,16.846,0,0,0,6.635-1.414,3.9,3.9,0,0,0,1.931-5.378A4.059,4.059,0,0,0,230.176,164.967Z"/><path d="M210.252,187.82a11.154,11.154,0,0,1,1.133-2.717,3.892,3.892,0,0,0-6.7-3.961,18.79,18.79,0,0,0-1.924,4.546,3.89,3.89,0,0,0,3.739,4.992A3.9,3.9,0,0,0,210.252,187.82Z"/><circle cx="22.32" cy="189.383" r="4"/><circle cx="97.014" cy="163.176" r="4"/><circle cx="74.342" cy="135.15" r="4"/><circle cx="117.797" cy="131.385" r="4"/><circle cx="91.716" cy="87.92" r="4"/><circle cx="141.403" cy="114.421" r="4"/><circle cx="100.158" cy="218.031" r="4"/><circle cx="205.359" cy="215.985" r="4"/></svg>