<?xml version="1.0" ?><!DOCTYPE svg  PUBLIC '-//W3C//DTD SVG 1.0//EN'  'http://www.w3.org/TR/2001/REC-SVG-20010904/DTD/svg10.dtd'><svg enable-background="new 0 0 24 24" id="Layer_1" version="1.0" viewBox="0 0 24 24" xml:space="preserve" xmlns="http://www.w3.org/2000/svg" xmlns:xlink="http://www.w3.org/1999/xlink"><g><circle cx="12" cy="12" fill="none" r="9.5" stroke="#000000" stroke-dasharray="2,2" stroke-linejoin="round"/></g><g><circle cx="12" cy="9.2" r="1.6"/></g><path d="M5,8.4l1.4,1.9C7,11.1,7.8,11.7,8.8,12l0.9,0.3  h4.7l0.9-0.3c0.9-0.3,1.8-0.9,2.4-1.7L19,8.4" fill="none" stroke="#000000" stroke-miterlimit="10" stroke-width="1.5556"/><path d="M15.1,19l-0.4-1.9c-0.2-1.1-0.2-2.2,0.1-3.3l0.4-1.5H12H8.9l0.4,1.5c0.3,1.1,0.3,2.2,0.1,3.3L8.9,19l1.6,0.3l1.6-2l1.6,2  L15.1,19z"/></svg>